<?xml version="1.0" encoding="UTF-8"?>
<svg xmlns="http://www.w3.org/2000/svg" xmlns:xlink="http://www.w3.org/1999/xlink" width="3306.62" height="3306.64" viewBox="0 0 3306.62 3306.64">
<defs>
<clipPath id="clip-0">
<path clip-rule="nonzero" d="M 529 529 L 2778 529 L 2778 2778 L 529 2778 Z M 529 529 "/>
</clipPath>
<clipPath id="clip-1">
<path clip-rule="evenodd" d="M 800.460938 1181.660156 C 772.039062 1181.660156 748.78125 1158.410156 748.78125 1129.980469 L 748.78125 962 C 748.78125 842.46875 842.457031 748.789062 961.992188 748.789062 L 1129.96875 748.789062 C 1197.96875 748.789062 1197.96875 852.148438 1129.96875 852.148438 L 961.992188 852.148438 C 900.609375 852.148438 852.164062 900.601562 852.164062 961.988281 L 852.164062 1129.96875 C 852.148438 1158.410156 828.890625 1181.660156 800.460938 1181.660156 Z M 2506.171875 1181.660156 C 2477.730469 1181.660156 2454.449219 1158.410156 2454.449219 1129.980469 L 2454.449219 962 C 2454.449219 900.621094 2406.019531 852.160156 2344.640625 852.160156 L 2176.648438 852.148438 C 2108.640625 852.148438 2108.640625 748.789062 2176.648438 748.789062 L 2344.640625 748.789062 C 2464.148438 748.789062 2557.828125 842.46875 2557.828125 962 L 2557.828125 1129.980469 C 2557.828125 1158.410156 2534.589844 1181.660156 2506.171875 1181.660156 Z M 1129.96875 2454.488281 C 1197.96875 2454.488281 1197.96875 2557.839844 1129.96875 2557.839844 L 961.992188 2557.839844 C 842.457031 2557.839844 748.78125 2464.148438 748.78125 2344.648438 L 748.78125 2176.648438 C 748.78125 2108.679688 852.148438 2108.679688 852.148438 2176.648438 L 852.148438 2344.648438 C 852.148438 2406.03125 900.597656 2454.460938 961.980469 2454.460938 Z M 2176.648438 2557.839844 C 2108.640625 2557.839844 2108.640625 2454.488281 2176.648438 2454.488281 L 2344.640625 2454.488281 C 2406.019531 2454.488281 2454.449219 2406.03125 2454.449219 2344.648438 L 2454.449219 2176.648438 C 2454.449219 2108.679688 2557.828125 2108.679688 2557.828125 2176.648438 L 2557.828125 2344.648438 C 2557.828125 2464.179688 2464.171875 2557.839844 2344.640625 2557.839844 Z M 1782.53125 2572.710938 L 1551.878906 2342.050781 C 1542.179688 2332.351562 1537.019531 2319.429688 1537.019531 2305.21875 L 1537.019531 2181.460938 C 1359.539062 2123.730469 1394.480469 1847.148438 1588.699219 1847.148438 C 1683.011719 1847.148438 1763.148438 1924.03125 1763.148438 2015.121094 C 1763.148438 2093.421875 1711.460938 2159.710938 1640.390625 2181.78125 L 1640.390625 2283.898438 L 1871.050781 2514.558594 C 1880.738281 2524.25 1885.890625 2537.171875 1885.890625 2551.378906 L 1885.890625 2777.53125 L 2628.910156 2777.53125 C 2710.988281 2777.53125 2777.519531 2710.96875 2777.519531 2628.921875 L 2777.519531 1524.089844 L 2573.359375 1524.101562 L 2342.699219 1754.75 C 2333 1764.449219 2319.421875 1769.621094 2305.871094 1769.621094 L 2181.449219 1769.621094 C 2159.261719 1837.828125 2093.941406 1885.898438 2015.109375 1885.898438 C 1922.738281 1885.898438 1847.148438 1810.308594 1847.148438 1717.929688 C 1847.148438 1623.601562 1924.03125 1543.488281 2015.109375 1543.488281 C 2093.378906 1543.488281 2159.699219 1595.179688 2181.769531 1666.25 L 2284.539062 1666.238281 L 2515.210938 1435.578125 C 2524.898438 1425.890625 2537.820312 1420.71875 2552.03125 1420.71875 L 2777.519531 1420.71875 L 2777.519531 677.699219 C 2777.519531 595.648438 2710.960938 529.109375 2628.910156 529.109375 L 1524.101562 529.109375 L 1524.101562 733.28125 L 1754.75 963.929688 C 1764.441406 973.621094 1769.609375 986.550781 1769.609375 1000.75 L 1769.609375 1125.191406 C 1947.058594 1182.890625 1912.148438 1459.480469 1717.921875 1459.480469 C 1623.589844 1459.480469 1543.480469 1382.601562 1543.480469 1291.5 C 1543.480469 1213.230469 1595.171875 1146.921875 1666.238281 1124.871094 L 1666.238281 1022.078125 L 1435.578125 791.421875 C 1425.890625 781.738281 1420.730469 768.820312 1420.730469 754.601562 L 1420.730469 529.109375 L 677.695312 529.109375 C 595.644531 529.109375 529.097656 595.648438 529.097656 677.699219 L 529.097656 1782.539062 L 733.917969 1782.539062 L 964.566406 1551.878906 C 974.257812 1542.179688 987.179688 1537.011719 1001.398438 1537.011719 L 1125.179688 1537.011719 C 1182.878906 1359.570312 1459.46875 1394.480469 1459.46875 1588.699219 C 1459.46875 1683.050781 1382.589844 1763.160156 1291.488281 1763.160156 C 1213.21875 1763.160156 1146.910156 1711.46875 1124.859375 1640.378906 L 1022.71875 1640.390625 L 792.054688 1871.058594 C 782.363281 1880.75 768.796875 1885.898438 755.230469 1885.898438 L 529.097656 1885.898438 L 529.097656 2628.921875 C 529.097656 2710.96875 595.644531 2777.53125 677.695312 2777.53125 L 1782.53125 2777.53125 L 1782.53125 2572.710938 "/>
</clipPath>
<linearGradient id="linear-pattern-0" gradientUnits="userSpaceOnUse" x1="-0.0000000218553" y1="0" x2="1" y2="0" gradientTransform="matrix(-0.00009828, -2248.42, 2248.42, -0.00009828, 1653.31, 2777.53)">
<stop offset="0" stop-color="rgb(89.802551%, 90.194702%, 89.802551%)" stop-opacity="1"/>
<stop offset="0.03125" stop-color="rgb(89.64386%, 90.023804%, 89.637756%)" stop-opacity="1"/>
<stop offset="0.0625" stop-color="rgb(89.324951%, 89.680481%, 89.306641%)" stop-opacity="1"/>
<stop offset="0.09375" stop-color="rgb(89.006042%, 89.337158%, 88.975525%)" stop-opacity="1"/>
<stop offset="0.125" stop-color="rgb(88.687134%, 88.993835%, 88.644409%)" stop-opacity="1"/>
<stop offset="0.15625" stop-color="rgb(88.368225%, 88.650513%, 88.313293%)" stop-opacity="1"/>
<stop offset="0.1875" stop-color="rgb(88.049316%, 88.30719%, 87.982178%)" stop-opacity="1"/>
<stop offset="0.21875" stop-color="rgb(87.731934%, 87.963867%, 87.651062%)" stop-opacity="1"/>
<stop offset="0.25" stop-color="rgb(87.413025%, 87.620544%, 87.321472%)" stop-opacity="1"/>
<stop offset="0.28125" stop-color="rgb(87.094116%, 87.278748%, 86.990356%)" stop-opacity="1"/>
<stop offset="0.3125" stop-color="rgb(86.775208%, 86.935425%, 86.659241%)" stop-opacity="1"/>
<stop offset="0.34375" stop-color="rgb(86.456299%, 86.592102%, 86.328125%)" stop-opacity="1"/>
<stop offset="0.375" stop-color="rgb(86.138916%, 86.248779%, 85.997009%)" stop-opacity="1"/>
<stop offset="0.40625" stop-color="rgb(85.820007%, 85.905457%, 85.665894%)" stop-opacity="1"/>
<stop offset="0.4375" stop-color="rgb(85.501099%, 85.562134%, 85.336304%)" stop-opacity="1"/>
<stop offset="0.46875" stop-color="rgb(85.18219%, 85.218811%, 85.005188%)" stop-opacity="1"/>
<stop offset="0.5" stop-color="rgb(84.863281%, 84.875488%, 84.674072%)" stop-opacity="1"/>
<stop offset="0.53125" stop-color="rgb(84.545898%, 84.532166%, 84.342957%)" stop-opacity="1"/>
<stop offset="0.5625" stop-color="rgb(84.22699%, 84.190369%, 84.011841%)" stop-opacity="1"/>
<stop offset="0.59375" stop-color="rgb(83.908081%, 83.847046%, 83.680725%)" stop-opacity="1"/>
<stop offset="0.625" stop-color="rgb(83.589172%, 83.503723%, 83.349609%)" stop-opacity="1"/>
<stop offset="0.65625" stop-color="rgb(83.270264%, 83.1604%, 83.02002%)" stop-opacity="1"/>
<stop offset="0.6875" stop-color="rgb(82.951355%, 82.817078%, 82.688904%)" stop-opacity="1"/>
<stop offset="0.71875" stop-color="rgb(82.633972%, 82.473755%, 82.357788%)" stop-opacity="1"/>
<stop offset="0.75" stop-color="rgb(82.315063%, 82.130432%, 82.026672%)" stop-opacity="1"/>
<stop offset="0.78125" stop-color="rgb(81.996155%, 81.787109%, 81.695557%)" stop-opacity="1"/>
<stop offset="0.8125" stop-color="rgb(81.677246%, 81.445312%, 81.364441%)" stop-opacity="1"/>
<stop offset="0.84375" stop-color="rgb(81.358337%, 81.10199%, 81.034851%)" stop-opacity="1"/>
<stop offset="0.875" stop-color="rgb(81.040955%, 80.758667%, 80.703735%)" stop-opacity="1"/>
<stop offset="0.90625" stop-color="rgb(80.722046%, 80.415344%, 80.37262%)" stop-opacity="1"/>
<stop offset="0.9375" stop-color="rgb(80.403137%, 80.072021%, 80.041504%)" stop-opacity="1"/>
<stop offset="0.96875" stop-color="rgb(80.084229%, 79.728699%, 79.710388%)" stop-opacity="1"/>
<stop offset="1" stop-color="rgb(79.76532%, 79.385376%, 79.379272%)" stop-opacity="1"/>
</linearGradient>
<clipPath id="clip-2">
<path clip-rule="nonzero" d="M 1220 1524 L 1356 1524 L 1356 1660 L 1220 1660 Z M 1220 1524 "/>
</clipPath>
<clipPath id="clip-3">
<path clip-rule="evenodd" d="M 1291.488281 1659.78125 C 1370.929688 1659.78125 1381.910156 1524.101562 1291.488281 1524.101562 C 1191.511719 1524.101562 1203.371094 1659.78125 1291.488281 1659.78125 "/>
</clipPath>
<linearGradient id="linear-pattern-1" gradientUnits="userSpaceOnUse" x1="-0.00912134" y1="0" x2="0.988929" y2="0" gradientTransform="matrix(0.00000162, 135.945, -135.945, 0.00000162, 1288.07, 1525.34)">
<stop offset="0" stop-color="rgb(97.253418%, 58.430481%, 11.372375%)" stop-opacity="1"/>
<stop offset="0.015625" stop-color="rgb(97.245789%, 58.364868%, 11.378479%)" stop-opacity="1"/>
<stop offset="0.03125" stop-color="rgb(97.219849%, 58.139038%, 11.399841%)" stop-opacity="1"/>
<stop offset="0.046875" stop-color="rgb(97.183228%, 57.821655%, 11.430359%)" stop-opacity="1"/>
<stop offset="0.0625" stop-color="rgb(97.146606%, 57.502747%, 11.460876%)" stop-opacity="1"/>
<stop offset="0.078125" stop-color="rgb(97.109985%, 57.185364%, 11.491394%)" stop-opacity="1"/>
<stop offset="0.09375" stop-color="rgb(97.073364%, 56.867981%, 11.521912%)" stop-opacity="1"/>
<stop offset="0.109375" stop-color="rgb(97.036743%, 56.549072%, 11.552429%)" stop-opacity="1"/>
<stop offset="0.125" stop-color="rgb(97.000122%, 56.231689%, 11.582947%)" stop-opacity="1"/>
<stop offset="0.140625" stop-color="rgb(96.963501%, 55.912781%, 11.613464%)" stop-opacity="1"/>
<stop offset="0.15625" stop-color="rgb(96.92688%, 55.595398%, 11.643982%)" stop-opacity="1"/>
<stop offset="0.171875" stop-color="rgb(96.890259%, 55.278015%, 11.6745%)" stop-opacity="1"/>
<stop offset="0.1875" stop-color="rgb(96.853638%, 54.959106%, 11.705017%)" stop-opacity="1"/>
<stop offset="0.203125" stop-color="rgb(96.817017%, 54.641724%, 11.735535%)" stop-opacity="1"/>
<stop offset="0.21875" stop-color="rgb(96.780396%, 54.322815%, 11.766052%)" stop-opacity="1"/>
<stop offset="0.234375" stop-color="rgb(96.743774%, 54.005432%, 11.79657%)" stop-opacity="1"/>
<stop offset="0.25" stop-color="rgb(96.707153%, 53.686523%, 11.827087%)" stop-opacity="1"/>
<stop offset="0.265625" stop-color="rgb(96.670532%, 53.369141%, 11.857605%)" stop-opacity="1"/>
<stop offset="0.28125" stop-color="rgb(96.633911%, 53.051758%, 11.889648%)" stop-opacity="1"/>
<stop offset="0.296875" stop-color="rgb(96.59729%, 52.732849%, 11.920166%)" stop-opacity="1"/>
<stop offset="0.3125" stop-color="rgb(96.560669%, 52.415466%, 11.950684%)" stop-opacity="1"/>
<stop offset="0.328125" stop-color="rgb(96.524048%, 52.096558%, 11.981201%)" stop-opacity="1"/>
<stop offset="0.34375" stop-color="rgb(96.487427%, 51.779175%, 12.011719%)" stop-opacity="1"/>
<stop offset="0.359375" stop-color="rgb(96.44928%, 51.461792%, 12.042236%)" stop-opacity="1"/>
<stop offset="0.375" stop-color="rgb(96.412659%, 51.142883%, 12.072754%)" stop-opacity="1"/>
<stop offset="0.390625" stop-color="rgb(96.376038%, 50.8255%, 12.103271%)" stop-opacity="1"/>
<stop offset="0.40625" stop-color="rgb(96.339417%, 50.506592%, 12.133789%)" stop-opacity="1"/>
<stop offset="0.421875" stop-color="rgb(96.302795%, 50.189209%, 12.164307%)" stop-opacity="1"/>
<stop offset="0.4375" stop-color="rgb(96.266174%, 49.871826%, 12.194824%)" stop-opacity="1"/>
<stop offset="0.453125" stop-color="rgb(96.229553%, 49.552917%, 12.225342%)" stop-opacity="1"/>
<stop offset="0.46875" stop-color="rgb(96.192932%, 49.235535%, 12.255859%)" stop-opacity="1"/>
<stop offset="0.484375" stop-color="rgb(96.156311%, 48.916626%, 12.286377%)" stop-opacity="1"/>
<stop offset="0.5" stop-color="rgb(96.11969%, 48.599243%, 12.316895%)" stop-opacity="1"/>
<stop offset="0.515625" stop-color="rgb(96.083069%, 48.28186%, 12.347412%)" stop-opacity="1"/>
<stop offset="0.53125" stop-color="rgb(96.046448%, 47.962952%, 12.37793%)" stop-opacity="1"/>
<stop offset="0.546875" stop-color="rgb(96.009827%, 47.645569%, 12.408447%)" stop-opacity="1"/>
<stop offset="0.5625" stop-color="rgb(95.973206%, 47.32666%, 12.438965%)" stop-opacity="1"/>
<stop offset="0.578125" stop-color="rgb(95.936584%, 47.009277%, 12.469482%)" stop-opacity="1"/>
<stop offset="0.59375" stop-color="rgb(95.899963%, 46.690369%, 12.5%)" stop-opacity="1"/>
<stop offset="0.609375" stop-color="rgb(95.863342%, 46.372986%, 12.530518%)" stop-opacity="1"/>
<stop offset="0.625" stop-color="rgb(95.826721%, 46.055603%, 12.561035%)" stop-opacity="1"/>
<stop offset="0.640625" stop-color="rgb(95.7901%, 45.736694%, 12.591553%)" stop-opacity="1"/>
<stop offset="0.65625" stop-color="rgb(95.753479%, 45.419312%, 12.62207%)" stop-opacity="1"/>
<stop offset="0.671875" stop-color="rgb(95.716858%, 45.100403%, 12.654114%)" stop-opacity="1"/>
<stop offset="0.6875" stop-color="rgb(95.678711%, 44.78302%, 12.684631%)" stop-opacity="1"/>
<stop offset="0.703125" stop-color="rgb(95.64209%, 44.465637%, 12.715149%)" stop-opacity="1"/>
<stop offset="0.71875" stop-color="rgb(95.605469%, 44.146729%, 12.745667%)" stop-opacity="1"/>
<stop offset="0.734375" stop-color="rgb(95.568848%, 43.829346%, 12.776184%)" stop-opacity="1"/>
<stop offset="0.75" stop-color="rgb(95.532227%, 43.510437%, 12.806702%)" stop-opacity="1"/>
<stop offset="0.765625" stop-color="rgb(95.495605%, 43.193054%, 12.837219%)" stop-opacity="1"/>
<stop offset="0.78125" stop-color="rgb(95.458984%, 42.875671%, 12.867737%)" stop-opacity="1"/>
<stop offset="0.796875" stop-color="rgb(95.422363%, 42.556763%, 12.898254%)" stop-opacity="1"/>
<stop offset="0.8125" stop-color="rgb(95.385742%, 42.23938%, 12.928772%)" stop-opacity="1"/>
<stop offset="0.828125" stop-color="rgb(95.349121%, 41.920471%, 12.95929%)" stop-opacity="1"/>
<stop offset="0.84375" stop-color="rgb(95.3125%, 41.603088%, 12.989807%)" stop-opacity="1"/>
<stop offset="0.859375" stop-color="rgb(95.275879%, 41.285706%, 13.020325%)" stop-opacity="1"/>
<stop offset="0.875" stop-color="rgb(95.239258%, 40.966797%, 13.050842%)" stop-opacity="1"/>
<stop offset="0.890625" stop-color="rgb(95.202637%, 40.649414%, 13.08136%)" stop-opacity="1"/>
<stop offset="0.90625" stop-color="rgb(95.166016%, 40.330505%, 13.111877%)" stop-opacity="1"/>
<stop offset="0.921875" stop-color="rgb(95.129395%, 40.013123%, 13.142395%)" stop-opacity="1"/>
<stop offset="0.9375" stop-color="rgb(95.092773%, 39.694214%, 13.172913%)" stop-opacity="1"/>
<stop offset="0.953125" stop-color="rgb(95.056152%, 39.376831%, 13.20343%)" stop-opacity="1"/>
<stop offset="0.96875" stop-color="rgb(95.019531%, 39.059448%, 13.233948%)" stop-opacity="1"/>
<stop offset="0.984375" stop-color="rgb(94.98291%, 38.74054%, 13.264465%)" stop-opacity="1"/>
<stop offset="1" stop-color="rgb(94.946289%, 38.423157%, 13.294983%)" stop-opacity="1"/>
</linearGradient>
<clipPath id="clip-4">
<path clip-rule="nonzero" d="M 1647 1220 L 1783 1220 L 1783 1357 L 1647 1357 Z M 1647 1220 "/>
</clipPath>
<clipPath id="clip-5">
<path clip-rule="evenodd" d="M 1717.921875 1220.421875 C 1626.859375 1220.421875 1622.128906 1356.109375 1717.921875 1356.109375 C 1805.539062 1356.109375 1801.601562 1220.421875 1717.921875 1220.421875 "/>
</clipPath>
<linearGradient id="linear-pattern-2" gradientUnits="userSpaceOnUse" x1="-0.00794837" y1="0" x2="0.990675" y2="0" gradientTransform="matrix(0.00000162, 135.877, -135.877, 0.00000162, 1715, 1221.5)">
<stop offset="0" stop-color="rgb(97.253418%, 58.430481%, 11.372375%)" stop-opacity="1"/>
<stop offset="0.015625" stop-color="rgb(97.244263%, 58.352661%, 11.378479%)" stop-opacity="1"/>
<stop offset="0.03125" stop-color="rgb(97.218323%, 58.114624%, 11.401367%)" stop-opacity="1"/>
<stop offset="0.046875" stop-color="rgb(97.181702%, 57.797241%, 11.431885%)" stop-opacity="1"/>
<stop offset="0.0625" stop-color="rgb(97.143555%, 57.478333%, 11.463928%)" stop-opacity="1"/>
<stop offset="0.078125" stop-color="rgb(97.106934%, 57.16095%, 11.494446%)" stop-opacity="1"/>
<stop offset="0.09375" stop-color="rgb(97.070312%, 56.842041%, 11.524963%)" stop-opacity="1"/>
<stop offset="0.109375" stop-color="rgb(97.033691%, 56.524658%, 11.555481%)" stop-opacity="1"/>
<stop offset="0.125" stop-color="rgb(96.99707%, 56.20575%, 11.585999%)" stop-opacity="1"/>
<stop offset="0.140625" stop-color="rgb(96.960449%, 55.888367%, 11.616516%)" stop-opacity="1"/>
<stop offset="0.15625" stop-color="rgb(96.923828%, 55.569458%, 11.647034%)" stop-opacity="1"/>
<stop offset="0.171875" stop-color="rgb(96.887207%, 55.252075%, 11.677551%)" stop-opacity="1"/>
<stop offset="0.1875" stop-color="rgb(96.850586%, 54.933167%, 11.708069%)" stop-opacity="1"/>
<stop offset="0.203125" stop-color="rgb(96.813965%, 54.614258%, 11.738586%)" stop-opacity="1"/>
<stop offset="0.21875" stop-color="rgb(96.777344%, 54.296875%, 11.769104%)" stop-opacity="1"/>
<stop offset="0.234375" stop-color="rgb(96.740723%, 53.977966%, 11.799622%)" stop-opacity="1"/>
<stop offset="0.25" stop-color="rgb(96.704102%, 53.660583%, 11.830139%)" stop-opacity="1"/>
<stop offset="0.265625" stop-color="rgb(96.66748%, 53.341675%, 11.860657%)" stop-opacity="1"/>
<stop offset="0.28125" stop-color="rgb(96.630859%, 53.024292%, 11.891174%)" stop-opacity="1"/>
<stop offset="0.296875" stop-color="rgb(96.594238%, 52.705383%, 11.921692%)" stop-opacity="1"/>
<stop offset="0.3125" stop-color="rgb(96.557617%, 52.388%, 11.952209%)" stop-opacity="1"/>
<stop offset="0.328125" stop-color="rgb(96.51947%, 52.069092%, 11.982727%)" stop-opacity="1"/>
<stop offset="0.34375" stop-color="rgb(96.482849%, 51.751709%, 12.013245%)" stop-opacity="1"/>
<stop offset="0.359375" stop-color="rgb(96.446228%, 51.4328%, 12.043762%)" stop-opacity="1"/>
<stop offset="0.375" stop-color="rgb(96.409607%, 51.115417%, 12.075806%)" stop-opacity="1"/>
<stop offset="0.390625" stop-color="rgb(96.372986%, 50.796509%, 12.106323%)" stop-opacity="1"/>
<stop offset="0.40625" stop-color="rgb(96.336365%, 50.479126%, 12.136841%)" stop-opacity="1"/>
<stop offset="0.421875" stop-color="rgb(96.299744%, 50.160217%, 12.167358%)" stop-opacity="1"/>
<stop offset="0.4375" stop-color="rgb(96.263123%, 49.842834%, 12.197876%)" stop-opacity="1"/>
<stop offset="0.453125" stop-color="rgb(96.226501%, 49.523926%, 12.228394%)" stop-opacity="1"/>
<stop offset="0.46875" stop-color="rgb(96.18988%, 49.205017%, 12.258911%)" stop-opacity="1"/>
<stop offset="0.484375" stop-color="rgb(96.153259%, 48.887634%, 12.289429%)" stop-opacity="1"/>
<stop offset="0.5" stop-color="rgb(96.116638%, 48.568726%, 12.319946%)" stop-opacity="1"/>
<stop offset="0.515625" stop-color="rgb(96.080017%, 48.251343%, 12.350464%)" stop-opacity="1"/>
<stop offset="0.53125" stop-color="rgb(96.043396%, 47.932434%, 12.380981%)" stop-opacity="1"/>
<stop offset="0.546875" stop-color="rgb(96.006775%, 47.615051%, 12.411499%)" stop-opacity="1"/>
<stop offset="0.5625" stop-color="rgb(95.970154%, 47.296143%, 12.442017%)" stop-opacity="1"/>
<stop offset="0.578125" stop-color="rgb(95.932007%, 46.97876%, 12.472534%)" stop-opacity="1"/>
<stop offset="0.59375" stop-color="rgb(95.895386%, 46.659851%, 12.503052%)" stop-opacity="1"/>
<stop offset="0.609375" stop-color="rgb(95.858765%, 46.342468%, 12.533569%)" stop-opacity="1"/>
<stop offset="0.625" stop-color="rgb(95.822144%, 46.02356%, 12.564087%)" stop-opacity="1"/>
<stop offset="0.640625" stop-color="rgb(95.785522%, 45.706177%, 12.594604%)" stop-opacity="1"/>
<stop offset="0.65625" stop-color="rgb(95.748901%, 45.387268%, 12.625122%)" stop-opacity="1"/>
<stop offset="0.671875" stop-color="rgb(95.71228%, 45.069885%, 12.657166%)" stop-opacity="1"/>
<stop offset="0.6875" stop-color="rgb(95.675659%, 44.750977%, 12.687683%)" stop-opacity="1"/>
<stop offset="0.703125" stop-color="rgb(95.639038%, 44.433594%, 12.718201%)" stop-opacity="1"/>
<stop offset="0.71875" stop-color="rgb(95.602417%, 44.114685%, 12.748718%)" stop-opacity="1"/>
<stop offset="0.734375" stop-color="rgb(95.565796%, 43.795776%, 12.779236%)" stop-opacity="1"/>
<stop offset="0.75" stop-color="rgb(95.529175%, 43.478394%, 12.809753%)" stop-opacity="1"/>
<stop offset="0.765625" stop-color="rgb(95.492554%, 43.159485%, 12.840271%)" stop-opacity="1"/>
<stop offset="0.78125" stop-color="rgb(95.455933%, 42.842102%, 12.870789%)" stop-opacity="1"/>
<stop offset="0.796875" stop-color="rgb(95.419312%, 42.523193%, 12.901306%)" stop-opacity="1"/>
<stop offset="0.8125" stop-color="rgb(95.38269%, 42.205811%, 12.931824%)" stop-opacity="1"/>
<stop offset="0.828125" stop-color="rgb(95.346069%, 41.886902%, 12.962341%)" stop-opacity="1"/>
<stop offset="0.84375" stop-color="rgb(95.307922%, 41.569519%, 12.992859%)" stop-opacity="1"/>
<stop offset="0.859375" stop-color="rgb(95.271301%, 41.25061%, 13.023376%)" stop-opacity="1"/>
<stop offset="0.875" stop-color="rgb(95.23468%, 40.933228%, 13.053894%)" stop-opacity="1"/>
<stop offset="0.890625" stop-color="rgb(95.198059%, 40.614319%, 13.084412%)" stop-opacity="1"/>
<stop offset="0.90625" stop-color="rgb(95.161438%, 40.296936%, 13.114929%)" stop-opacity="1"/>
<stop offset="0.921875" stop-color="rgb(95.124817%, 39.978027%, 13.145447%)" stop-opacity="1"/>
<stop offset="0.9375" stop-color="rgb(95.088196%, 39.660645%, 13.175964%)" stop-opacity="1"/>
<stop offset="0.953125" stop-color="rgb(95.051575%, 39.341736%, 13.206482%)" stop-opacity="1"/>
<stop offset="0.96875" stop-color="rgb(95.014954%, 39.024353%, 13.237%)" stop-opacity="1"/>
<stop offset="0.984375" stop-color="rgb(94.978333%, 38.705444%, 13.269043%)" stop-opacity="1"/>
<stop offset="1" stop-color="rgb(94.941711%, 38.386536%, 13.299561%)" stop-opacity="1"/>
</linearGradient>
<clipPath id="clip-6">
<path clip-rule="nonzero" d="M 1951 1646 L 2086 1646 L 2086 1783 L 1951 1783 Z M 1951 1646 "/>
</clipPath>
<clipPath id="clip-7">
<path clip-rule="evenodd" d="M 2015.109375 1646.859375 C 1935.691406 1646.859375 1924.710938 1782.539062 2015.109375 1782.539062 C 2114.871094 1782.539062 2103.519531 1646.859375 2015.109375 1646.859375 "/>
</clipPath>
<linearGradient id="linear-pattern-3" gradientUnits="userSpaceOnUse" x1="0.010004" y1="0" x2="1.008055" y2="0" gradientTransform="matrix(0.00000162, 135.945, -135.945, 0.00000162, 2018.55, 1645.5)">
<stop offset="0" stop-color="rgb(97.23053%, 58.226013%, 11.390686%)" stop-opacity="1"/>
<stop offset="0.015625" stop-color="rgb(97.212219%, 58.067322%, 11.405945%)" stop-opacity="1"/>
<stop offset="0.03125" stop-color="rgb(97.175598%, 57.749939%, 11.436462%)" stop-opacity="1"/>
<stop offset="0.046875" stop-color="rgb(97.138977%, 57.43103%, 11.468506%)" stop-opacity="1"/>
<stop offset="0.0625" stop-color="rgb(97.102356%, 57.113647%, 11.499023%)" stop-opacity="1"/>
<stop offset="0.078125" stop-color="rgb(97.065735%, 56.794739%, 11.529541%)" stop-opacity="1"/>
<stop offset="0.09375" stop-color="rgb(97.029114%, 56.477356%, 11.560059%)" stop-opacity="1"/>
<stop offset="0.109375" stop-color="rgb(96.992493%, 56.159973%, 11.590576%)" stop-opacity="1"/>
<stop offset="0.125" stop-color="rgb(96.955872%, 55.841064%, 11.621094%)" stop-opacity="1"/>
<stop offset="0.140625" stop-color="rgb(96.91925%, 55.523682%, 11.651611%)" stop-opacity="1"/>
<stop offset="0.15625" stop-color="rgb(96.882629%, 55.204773%, 11.682129%)" stop-opacity="1"/>
<stop offset="0.171875" stop-color="rgb(96.846008%, 54.88739%, 11.712646%)" stop-opacity="1"/>
<stop offset="0.1875" stop-color="rgb(96.807861%, 54.568481%, 11.743164%)" stop-opacity="1"/>
<stop offset="0.203125" stop-color="rgb(96.77124%, 54.251099%, 11.773682%)" stop-opacity="1"/>
<stop offset="0.21875" stop-color="rgb(96.734619%, 53.933716%, 11.804199%)" stop-opacity="1"/>
<stop offset="0.234375" stop-color="rgb(96.697998%, 53.614807%, 11.834717%)" stop-opacity="1"/>
<stop offset="0.25" stop-color="rgb(96.661377%, 53.297424%, 11.865234%)" stop-opacity="1"/>
<stop offset="0.265625" stop-color="rgb(96.624756%, 52.978516%, 11.895752%)" stop-opacity="1"/>
<stop offset="0.28125" stop-color="rgb(96.588135%, 52.661133%, 11.92627%)" stop-opacity="1"/>
<stop offset="0.296875" stop-color="rgb(96.551514%, 52.34375%, 11.956787%)" stop-opacity="1"/>
<stop offset="0.3125" stop-color="rgb(96.514893%, 52.024841%, 11.987305%)" stop-opacity="1"/>
<stop offset="0.328125" stop-color="rgb(96.478271%, 51.707458%, 12.017822%)" stop-opacity="1"/>
<stop offset="0.34375" stop-color="rgb(96.44165%, 51.38855%, 12.04834%)" stop-opacity="1"/>
<stop offset="0.359375" stop-color="rgb(96.405029%, 51.071167%, 12.078857%)" stop-opacity="1"/>
<stop offset="0.375" stop-color="rgb(96.368408%, 50.753784%, 12.109375%)" stop-opacity="1"/>
<stop offset="0.390625" stop-color="rgb(96.331787%, 50.434875%, 12.139893%)" stop-opacity="1"/>
<stop offset="0.40625" stop-color="rgb(96.295166%, 50.117493%, 12.17041%)" stop-opacity="1"/>
<stop offset="0.421875" stop-color="rgb(96.258545%, 49.798584%, 12.200928%)" stop-opacity="1"/>
<stop offset="0.4375" stop-color="rgb(96.221924%, 49.481201%, 12.232971%)" stop-opacity="1"/>
<stop offset="0.453125" stop-color="rgb(96.185303%, 49.163818%, 12.263489%)" stop-opacity="1"/>
<stop offset="0.46875" stop-color="rgb(96.148682%, 48.84491%, 12.294006%)" stop-opacity="1"/>
<stop offset="0.484375" stop-color="rgb(96.112061%, 48.527527%, 12.324524%)" stop-opacity="1"/>
<stop offset="0.5" stop-color="rgb(96.075439%, 48.208618%, 12.355042%)" stop-opacity="1"/>
<stop offset="0.515625" stop-color="rgb(96.038818%, 47.891235%, 12.385559%)" stop-opacity="1"/>
<stop offset="0.53125" stop-color="rgb(96.000671%, 47.572327%, 12.416077%)" stop-opacity="1"/>
<stop offset="0.546875" stop-color="rgb(95.96405%, 47.254944%, 12.446594%)" stop-opacity="1"/>
<stop offset="0.5625" stop-color="rgb(95.927429%, 46.937561%, 12.477112%)" stop-opacity="1"/>
<stop offset="0.578125" stop-color="rgb(95.890808%, 46.618652%, 12.507629%)" stop-opacity="1"/>
<stop offset="0.59375" stop-color="rgb(95.854187%, 46.30127%, 12.538147%)" stop-opacity="1"/>
<stop offset="0.609375" stop-color="rgb(95.817566%, 45.982361%, 12.568665%)" stop-opacity="1"/>
<stop offset="0.625" stop-color="rgb(95.780945%, 45.664978%, 12.599182%)" stop-opacity="1"/>
<stop offset="0.640625" stop-color="rgb(95.744324%, 45.347595%, 12.6297%)" stop-opacity="1"/>
<stop offset="0.65625" stop-color="rgb(95.707703%, 45.028687%, 12.660217%)" stop-opacity="1"/>
<stop offset="0.671875" stop-color="rgb(95.671082%, 44.711304%, 12.690735%)" stop-opacity="1"/>
<stop offset="0.6875" stop-color="rgb(95.63446%, 44.392395%, 12.721252%)" stop-opacity="1"/>
<stop offset="0.703125" stop-color="rgb(95.597839%, 44.075012%, 12.75177%)" stop-opacity="1"/>
<stop offset="0.71875" stop-color="rgb(95.561218%, 43.757629%, 12.782288%)" stop-opacity="1"/>
<stop offset="0.734375" stop-color="rgb(95.524597%, 43.438721%, 12.812805%)" stop-opacity="1"/>
<stop offset="0.75" stop-color="rgb(95.487976%, 43.121338%, 12.843323%)" stop-opacity="1"/>
<stop offset="0.765625" stop-color="rgb(95.451355%, 42.802429%, 12.87384%)" stop-opacity="1"/>
<stop offset="0.78125" stop-color="rgb(95.414734%, 42.485046%, 12.904358%)" stop-opacity="1"/>
<stop offset="0.796875" stop-color="rgb(95.378113%, 42.167664%, 12.934875%)" stop-opacity="1"/>
<stop offset="0.8125" stop-color="rgb(95.341492%, 41.848755%, 12.965393%)" stop-opacity="1"/>
<stop offset="0.828125" stop-color="rgb(95.304871%, 41.531372%, 12.995911%)" stop-opacity="1"/>
<stop offset="0.84375" stop-color="rgb(95.26825%, 41.212463%, 13.027954%)" stop-opacity="1"/>
<stop offset="0.859375" stop-color="rgb(95.230103%, 40.895081%, 13.058472%)" stop-opacity="1"/>
<stop offset="0.875" stop-color="rgb(95.193481%, 40.576172%, 13.088989%)" stop-opacity="1"/>
<stop offset="0.890625" stop-color="rgb(95.15686%, 40.258789%, 13.119507%)" stop-opacity="1"/>
<stop offset="0.90625" stop-color="rgb(95.120239%, 39.941406%, 13.150024%)" stop-opacity="1"/>
<stop offset="0.921875" stop-color="rgb(95.083618%, 39.622498%, 13.180542%)" stop-opacity="1"/>
<stop offset="0.9375" stop-color="rgb(95.046997%, 39.305115%, 13.21106%)" stop-opacity="1"/>
<stop offset="0.953125" stop-color="rgb(95.010376%, 38.986206%, 13.241577%)" stop-opacity="1"/>
<stop offset="0.96875" stop-color="rgb(94.973755%, 38.668823%, 13.272095%)" stop-opacity="1"/>
<stop offset="0.984375" stop-color="rgb(94.937134%, 38.35144%, 13.302612%)" stop-opacity="1"/>
<stop offset="1" stop-color="rgb(94.909668%, 38.114929%, 13.3255%)" stop-opacity="1"/>
</linearGradient>
<clipPath id="clip-8">
<path clip-rule="nonzero" d="M 1523 1950 L 1659 1950 L 1659 2086 L 1523 2086 Z M 1523 1950 "/>
</clipPath>
<clipPath id="clip-9">
<path clip-rule="evenodd" d="M 1594.789062 2085.929688 C 1677.628906 2082.648438 1684.300781 1950.539062 1588.699219 1950.539062 C 1505.628906 1950.539062 1496.789062 2084.671875 1594.789062 2085.929688 "/>
</clipPath>
<linearGradient id="linear-pattern-4" gradientUnits="userSpaceOnUse" x1="-0.00449896" y1="0" x2="0.994048" y2="0" gradientTransform="matrix(0.00000162, 135.587, -135.587, 0.00000162, 1591.25, 1951.15)">
<stop offset="0" stop-color="rgb(97.253418%, 58.430481%, 11.372375%)" stop-opacity="1"/>
<stop offset="0.015625" stop-color="rgb(97.239685%, 58.317566%, 11.383057%)" stop-opacity="1"/>
<stop offset="0.03125" stop-color="rgb(97.209167%, 58.044434%, 11.408997%)" stop-opacity="1"/>
<stop offset="0.046875" stop-color="rgb(97.172546%, 57.727051%, 11.439514%)" stop-opacity="1"/>
<stop offset="0.0625" stop-color="rgb(97.135925%, 57.408142%, 11.470032%)" stop-opacity="1"/>
<stop offset="0.078125" stop-color="rgb(97.099304%, 57.090759%, 11.500549%)" stop-opacity="1"/>
<stop offset="0.09375" stop-color="rgb(97.062683%, 56.771851%, 11.531067%)" stop-opacity="1"/>
<stop offset="0.109375" stop-color="rgb(97.026062%, 56.454468%, 11.561584%)" stop-opacity="1"/>
<stop offset="0.125" stop-color="rgb(96.989441%, 56.135559%, 11.592102%)" stop-opacity="1"/>
<stop offset="0.140625" stop-color="rgb(96.95282%, 55.818176%, 11.62262%)" stop-opacity="1"/>
<stop offset="0.15625" stop-color="rgb(96.916199%, 55.499268%, 11.653137%)" stop-opacity="1"/>
<stop offset="0.171875" stop-color="rgb(96.879578%, 55.181885%, 11.683655%)" stop-opacity="1"/>
<stop offset="0.1875" stop-color="rgb(96.842957%, 54.862976%, 11.714172%)" stop-opacity="1"/>
<stop offset="0.203125" stop-color="rgb(96.806335%, 54.545593%, 11.74469%)" stop-opacity="1"/>
<stop offset="0.21875" stop-color="rgb(96.769714%, 54.226685%, 11.775208%)" stop-opacity="1"/>
<stop offset="0.234375" stop-color="rgb(96.733093%, 53.909302%, 11.805725%)" stop-opacity="1"/>
<stop offset="0.25" stop-color="rgb(96.694946%, 53.590393%, 11.837769%)" stop-opacity="1"/>
<stop offset="0.265625" stop-color="rgb(96.658325%, 53.27301%, 11.868286%)" stop-opacity="1"/>
<stop offset="0.28125" stop-color="rgb(96.621704%, 52.954102%, 11.898804%)" stop-opacity="1"/>
<stop offset="0.296875" stop-color="rgb(96.585083%, 52.635193%, 11.929321%)" stop-opacity="1"/>
<stop offset="0.3125" stop-color="rgb(96.548462%, 52.31781%, 11.959839%)" stop-opacity="1"/>
<stop offset="0.328125" stop-color="rgb(96.511841%, 51.998901%, 11.990356%)" stop-opacity="1"/>
<stop offset="0.34375" stop-color="rgb(96.47522%, 51.681519%, 12.020874%)" stop-opacity="1"/>
<stop offset="0.359375" stop-color="rgb(96.438599%, 51.36261%, 12.051392%)" stop-opacity="1"/>
<stop offset="0.375" stop-color="rgb(96.401978%, 51.045227%, 12.081909%)" stop-opacity="1"/>
<stop offset="0.390625" stop-color="rgb(96.365356%, 50.726318%, 12.112427%)" stop-opacity="1"/>
<stop offset="0.40625" stop-color="rgb(96.328735%, 50.408936%, 12.142944%)" stop-opacity="1"/>
<stop offset="0.421875" stop-color="rgb(96.292114%, 50.090027%, 12.173462%)" stop-opacity="1"/>
<stop offset="0.4375" stop-color="rgb(96.255493%, 49.772644%, 12.203979%)" stop-opacity="1"/>
<stop offset="0.453125" stop-color="rgb(96.218872%, 49.453735%, 12.234497%)" stop-opacity="1"/>
<stop offset="0.46875" stop-color="rgb(96.182251%, 49.136353%, 12.265015%)" stop-opacity="1"/>
<stop offset="0.484375" stop-color="rgb(96.14563%, 48.817444%, 12.295532%)" stop-opacity="1"/>
<stop offset="0.5" stop-color="rgb(96.109009%, 48.500061%, 12.32605%)" stop-opacity="1"/>
<stop offset="0.515625" stop-color="rgb(96.070862%, 48.181152%, 12.356567%)" stop-opacity="1"/>
<stop offset="0.53125" stop-color="rgb(96.034241%, 47.86377%, 12.387085%)" stop-opacity="1"/>
<stop offset="0.546875" stop-color="rgb(95.99762%, 47.544861%, 12.417603%)" stop-opacity="1"/>
<stop offset="0.5625" stop-color="rgb(95.960999%, 47.227478%, 12.449646%)" stop-opacity="1"/>
<stop offset="0.578125" stop-color="rgb(95.924377%, 46.908569%, 12.480164%)" stop-opacity="1"/>
<stop offset="0.59375" stop-color="rgb(95.887756%, 46.591187%, 12.510681%)" stop-opacity="1"/>
<stop offset="0.609375" stop-color="rgb(95.851135%, 46.272278%, 12.541199%)" stop-opacity="1"/>
<stop offset="0.625" stop-color="rgb(95.814514%, 45.954895%, 12.571716%)" stop-opacity="1"/>
<stop offset="0.640625" stop-color="rgb(95.777893%, 45.635986%, 12.602234%)" stop-opacity="1"/>
<stop offset="0.65625" stop-color="rgb(95.741272%, 45.318604%, 12.632751%)" stop-opacity="1"/>
<stop offset="0.671875" stop-color="rgb(95.704651%, 44.999695%, 12.663269%)" stop-opacity="1"/>
<stop offset="0.6875" stop-color="rgb(95.66803%, 44.682312%, 12.693787%)" stop-opacity="1"/>
<stop offset="0.703125" stop-color="rgb(95.631409%, 44.363403%, 12.724304%)" stop-opacity="1"/>
<stop offset="0.71875" stop-color="rgb(95.594788%, 44.046021%, 12.754822%)" stop-opacity="1"/>
<stop offset="0.734375" stop-color="rgb(95.558167%, 43.727112%, 12.785339%)" stop-opacity="1"/>
<stop offset="0.75" stop-color="rgb(95.521545%, 43.409729%, 12.815857%)" stop-opacity="1"/>
<stop offset="0.765625" stop-color="rgb(95.484924%, 43.09082%, 12.846375%)" stop-opacity="1"/>
<stop offset="0.78125" stop-color="rgb(95.446777%, 42.773438%, 12.876892%)" stop-opacity="1"/>
<stop offset="0.796875" stop-color="rgb(95.410156%, 42.454529%, 12.90741%)" stop-opacity="1"/>
<stop offset="0.8125" stop-color="rgb(95.373535%, 42.137146%, 12.937927%)" stop-opacity="1"/>
<stop offset="0.828125" stop-color="rgb(95.336914%, 41.818237%, 12.968445%)" stop-opacity="1"/>
<stop offset="0.84375" stop-color="rgb(95.300293%, 41.500854%, 12.998962%)" stop-opacity="1"/>
<stop offset="0.859375" stop-color="rgb(95.263672%, 41.181946%, 13.02948%)" stop-opacity="1"/>
<stop offset="0.875" stop-color="rgb(95.227051%, 40.864563%, 13.061523%)" stop-opacity="1"/>
<stop offset="0.890625" stop-color="rgb(95.19043%, 40.545654%, 13.092041%)" stop-opacity="1"/>
<stop offset="0.90625" stop-color="rgb(95.153809%, 40.226746%, 13.122559%)" stop-opacity="1"/>
<stop offset="0.921875" stop-color="rgb(95.117188%, 39.909363%, 13.153076%)" stop-opacity="1"/>
<stop offset="0.9375" stop-color="rgb(95.080566%, 39.590454%, 13.183594%)" stop-opacity="1"/>
<stop offset="0.953125" stop-color="rgb(95.043945%, 39.273071%, 13.214111%)" stop-opacity="1"/>
<stop offset="0.96875" stop-color="rgb(95.007324%, 38.954163%, 13.244629%)" stop-opacity="1"/>
<stop offset="0.984375" stop-color="rgb(94.970703%, 38.63678%, 13.275146%)" stop-opacity="1"/>
<stop offset="1" stop-color="rgb(94.934082%, 38.317871%, 13.305664%)" stop-opacity="1"/>
</linearGradient>
</defs>
<path fill-rule="evenodd" fill="rgb(19.993591%, 19.993591%, 19.993591%)" fill-opacity="1" d="M 800.460938 1181.660156 C 828.890625 1181.660156 852.148438 1158.410156 852.164062 1129.96875 L 852.164062 961.988281 C 852.164062 900.601562 900.609375 852.148438 961.992188 852.148438 L 1129.96875 852.148438 C 1197.96875 852.148438 1197.96875 748.789062 1129.96875 748.789062 L 961.992188 748.789062 C 842.457031 748.789062 748.78125 842.46875 748.78125 962 L 748.78125 1129.980469 C 748.78125 1158.410156 772.039062 1181.660156 800.460938 1181.660156 Z M 2506.171875 1181.660156 C 2534.589844 1181.660156 2557.828125 1158.410156 2557.828125 1129.980469 L 2557.828125 962 C 2557.828125 842.46875 2464.148438 748.789062 2344.640625 748.789062 L 2176.648438 748.789062 C 2108.640625 748.789062 2108.640625 852.148438 2176.648438 852.148438 L 2344.640625 852.160156 C 2406.019531 852.160156 2454.449219 900.621094 2454.449219 962 L 2454.449219 1129.980469 C 2454.449219 1158.410156 2477.730469 1181.660156 2506.171875 1181.660156 Z M 1129.96875 2557.839844 C 1197.96875 2557.839844 1197.96875 2454.488281 1129.96875 2454.488281 L 961.980469 2454.460938 C 900.597656 2454.460938 852.148438 2406.03125 852.148438 2344.648438 L 852.148438 2176.648438 C 852.148438 2108.679688 748.78125 2108.679688 748.78125 2176.648438 L 748.78125 2344.648438 C 748.78125 2464.148438 842.457031 2557.839844 961.992188 2557.839844 Z M 2344.640625 2557.839844 C 2464.171875 2557.839844 2557.828125 2464.179688 2557.828125 2344.648438 L 2557.828125 2176.648438 C 2557.828125 2108.679688 2454.449219 2108.679688 2454.449219 2176.648438 L 2454.449219 2344.648438 C 2454.449219 2406.03125 2406.019531 2454.488281 2344.640625 2454.488281 L 2176.648438 2454.488281 C 2108.640625 2454.488281 2108.640625 2557.839844 2176.648438 2557.839844 Z M 1717.921875 1220.421875 C 1626.859375 1220.421875 1622.128906 1356.109375 1717.921875 1356.109375 C 1805.539062 1356.109375 1801.601562 1220.421875 1717.921875 1220.421875 Z M 1291.488281 1524.101562 C 1191.511719 1524.101562 1203.371094 1659.78125 1291.488281 1659.78125 C 1370.929688 1659.78125 1381.910156 1524.101562 1291.488281 1524.101562 Z M 1588.699219 1950.539062 C 1505.628906 1950.539062 1496.789062 2084.671875 1594.789062 2085.929688 C 1677.628906 2082.648438 1684.300781 1950.539062 1588.699219 1950.539062 Z M 2015.109375 1646.859375 C 1935.691406 1646.859375 1924.710938 1782.539062 2015.109375 1782.539062 C 2114.871094 1782.539062 2103.519531 1646.859375 2015.109375 1646.859375 Z M 2015.109375 1885.898438 C 1922.738281 1885.898438 1847.148438 1810.308594 1847.148438 1717.929688 C 1847.148438 1623.601562 1924.03125 1543.488281 2015.109375 1543.488281 C 2093.378906 1543.488281 2159.699219 1595.179688 2181.769531 1666.25 L 2284.539062 1666.238281 L 2515.210938 1435.578125 C 2524.898438 1425.890625 2537.820312 1420.71875 2552.03125 1420.71875 L 2777.519531 1420.71875 L 2777.519531 677.699219 C 2777.519531 595.648438 2710.960938 529.109375 2628.910156 529.109375 L 1524.101562 529.109375 L 1524.101562 733.28125 L 1754.75 963.929688 C 1764.441406 973.621094 1769.609375 986.550781 1769.609375 1000.75 L 1769.609375 1125.191406 C 1947.058594 1182.890625 1912.148438 1459.480469 1717.921875 1459.480469 C 1623.589844 1459.480469 1543.480469 1382.601562 1543.480469 1291.5 C 1543.480469 1213.230469 1595.171875 1146.921875 1666.238281 1124.871094 L 1666.238281 1022.078125 L 1435.578125 791.421875 C 1425.890625 781.738281 1420.730469 768.820312 1420.730469 754.601562 L 1420.730469 529.109375 L 677.695312 529.109375 C 595.644531 529.109375 529.097656 595.648438 529.097656 677.699219 L 529.097656 1782.539062 L 733.917969 1782.539062 L 964.566406 1551.878906 C 974.257812 1542.179688 987.179688 1537.011719 1001.398438 1537.011719 L 1125.179688 1537.011719 C 1182.878906 1359.570312 1459.46875 1394.480469 1459.46875 1588.699219 C 1459.46875 1683.050781 1382.589844 1763.160156 1291.488281 1763.160156 C 1213.21875 1763.160156 1146.910156 1711.46875 1124.859375 1640.378906 L 1022.71875 1640.390625 L 792.054688 1871.058594 C 782.363281 1880.75 768.796875 1885.898438 755.230469 1885.898438 L 529.097656 1885.898438 L 529.097656 2628.921875 C 529.097656 2710.96875 595.644531 2777.53125 677.695312 2777.53125 L 1782.53125 2777.53125 L 1782.53125 2572.710938 L 1551.878906 2342.050781 C 1542.179688 2332.351562 1537.019531 2319.429688 1537.019531 2305.21875 L 1537.019531 2181.460938 C 1359.539062 2123.730469 1394.480469 1847.148438 1588.699219 1847.148438 C 1683.011719 1847.148438 1763.148438 1924.03125 1763.148438 2015.121094 C 1763.148438 2093.421875 1711.460938 2159.710938 1640.390625 2181.78125 L 1640.390625 2283.898438 L 1871.050781 2514.558594 C 1880.738281 2524.25 1885.890625 2537.171875 1885.890625 2551.378906 L 1885.890625 2777.53125 L 2628.910156 2777.53125 C 2710.988281 2777.53125 2777.519531 2710.96875 2777.519531 2628.921875 L 2777.519531 1524.089844 L 2573.359375 1524.101562 L 2342.699219 1754.75 C 2333 1764.449219 2319.421875 1769.621094 2305.871094 1769.621094 L 2181.449219 1769.621094 C 2159.261719 1837.828125 2093.941406 1885.898438 2015.109375 1885.898438 Z M 2628.910156 2880.910156 L 2480.300781 2880.910156 L 2480.300781 3255.628906 C 2480.300781 3323.640625 2376.949219 3323.640625 2376.949219 3255.628906 L 2376.949219 2880.910156 L 1963.449219 2880.910156 L 1963.449219 3255.628906 C 1963.449219 3323.640625 1860.070312 3323.640625 1860.070312 3255.628906 L 1860.070312 2880.910156 L 1446.550781 2880.910156 L 1446.550781 3255.628906 C 1446.558594 3323.640625 1343.179688 3323.640625 1343.179688 3255.628906 L 1343.179688 2880.910156 L 929.683594 2880.910156 L 929.683594 3255.628906 C 929.683594 3323.640625 826.304688 3323.640625 826.304688 3255.628906 L 826.304688 2880.910156 L 677.695312 2880.910156 C 538.789062 2880.910156 425.730469 2767.828125 425.730469 2628.921875 L 425.730469 2480.308594 L 50.992188 2480.308594 C -16.996094 2480.308594 -16.996094 2376.949219 50.992188 2376.949219 L 425.730469 2376.949219 L 425.730469 1963.460938 L 50.992188 1963.460938 C -16.996094 1963.460938 -16.996094 1860.078125 50.992188 1860.078125 L 425.730469 1860.050781 L 425.730469 1446.570312 L 50.992188 1446.570312 C -16.996094 1446.570312 -16.996094 1343.199219 50.992188 1343.199219 L 425.730469 1343.191406 L 425.730469 929.691406 L 50.992188 929.691406 C -16.996094 929.691406 -16.996094 826.308594 50.992188 826.308594 L 425.730469 826.308594 L 425.730469 677.699219 C 425.730469 538.800781 538.789062 425.730469 677.707031 425.730469 L 826.304688 425.730469 L 826.304688 50.988281 C 826.304688 -16.988281 929.683594 -17 929.683594 50.988281 L 929.683594 425.730469 L 1343.179688 425.730469 L 1343.179688 50.988281 C 1343.179688 -16.988281 1446.550781 -17 1446.550781 50.988281 L 1446.550781 425.730469 L 1860.070312 425.730469 L 1860.070312 50.988281 C 1860.070312 -17 1963.449219 -16.988281 1963.449219 50.988281 L 1963.449219 425.730469 L 2376.949219 425.738281 L 2376.949219 50.988281 C 2376.949219 -17 2480.300781 -16.988281 2480.300781 50.988281 L 2480.300781 425.738281 L 2628.910156 425.738281 C 2767.828125 425.738281 2880.898438 538.800781 2880.898438 677.71875 L 2880.898438 826.308594 L 3255.628906 826.308594 C 3323.628906 826.308594 3323.601562 929.691406 3255.628906 929.691406 L 2880.898438 929.691406 L 2880.898438 1343.199219 L 3255.628906 1343.191406 C 3323.628906 1343.191406 3323.601562 1446.570312 3255.628906 1446.570312 L 2880.898438 1446.570312 L 2880.898438 1860.078125 L 3255.628906 1860.050781 C 3323.628906 1860.050781 3323.601562 1963.460938 3255.628906 1963.460938 L 2880.898438 1963.460938 L 2880.898438 2376.949219 L 3255.628906 2376.949219 C 3323.601562 2376.949219 3323.628906 2480.308594 3255.628906 2480.308594 L 2880.898438 2480.308594 L 2880.898438 2628.921875 C 2880.871094 2767.828125 2767.828125 2880.910156 2628.910156 2880.910156 "/>
<g clip-path="url(#clip-0)">
<g clip-path="url(#clip-1)">
<path fill-rule="nonzero" fill="url(#linear-pattern-0)" d="M 529.097656 2777.53125 L 2777.519531 2777.53125 L 2777.519531 529.109375 L 529.097656 529.109375 Z M 529.097656 2777.53125 "/>
</g>
</g>
<g clip-path="url(#clip-2)">
<g clip-path="url(#clip-3)">
<path fill-rule="nonzero" fill="url(#linear-pattern-1)" d="M 1381.910156 1524.101562 L 1191.511719 1524.101562 L 1191.511719 1659.78125 L 1381.910156 1659.78125 Z M 1381.910156 1524.101562 "/>
</g>
</g>
<g clip-path="url(#clip-4)">
<g clip-path="url(#clip-5)">
<path fill-rule="nonzero" fill="url(#linear-pattern-2)" d="M 1805.539062 1220.421875 L 1622.128906 1220.421875 L 1622.128906 1356.109375 L 1805.539062 1356.109375 Z M 1805.539062 1220.421875 "/>
</g>
</g>
<g clip-path="url(#clip-6)">
<g clip-path="url(#clip-7)">
<path fill-rule="nonzero" fill="url(#linear-pattern-3)" d="M 2114.871094 1646.859375 L 1924.710938 1646.859375 L 1924.710938 1782.539062 L 2114.871094 1782.539062 Z M 2114.871094 1646.859375 "/>
</g>
</g>
<g clip-path="url(#clip-8)">
<g clip-path="url(#clip-9)">
<path fill-rule="nonzero" fill="url(#linear-pattern-4)" d="M 1684.300781 1950.539062 L 1496.789062 1950.539062 L 1496.789062 2085.929688 L 1684.300781 2085.929688 Z M 1684.300781 1950.539062 "/>
</g>
</g>
</svg>
