<?xml version="1.0"?><svg xmlns="http://www.w3.org/2000/svg" id="Layer_1" version="1.1" viewBox="0 0 80 80"><path d="M41.025,4.308C21.176,4.308,5.025,20.457,5.025,40.308s16.15,36,36,36,36-16.15,36-36S60.875,4.308,41.025,4.308ZM55.775,52.848c0,1.22-.99,2.21-2.21,2.21h-25.08c-1.22,0-2.21-.99-2.21-2.21v-25.08c0-1.22.99-2.21,2.21-2.21h25.08c1.22,0,2.21.99,2.21,2.21v25.08Z" fill="#eee" fill-rule="evenodd"/><path d="M41.025,1.308C19.525,1.308,2.025,18.808,2.025,40.308s17.5,39,39,39,39-17.49,39-39S62.537,1.308,41.025,1.308ZM41.025,77.808c-20.709,0-37.5-16.79-37.5-37.5S20.316,2.808,41.025,2.808s37.5,16.79,37.5,37.5-16.789,37.5-37.5,37.5Z" fill="#cfcfcf"/><g><rect x="28.15" y="27.433" width="25.75" height="25.75" rx=".335" ry=".335" fill="#fff"/><path d="M53.525,27.808v25h-25v-25h25M53.565,27.058h-25.08c-.39,0-.71.32-.71.71v25.08c0,.39.32.71.71.71h25.08c.39,0,.71-.32.71-.71v-25.08c0-.39-.32-.71-.71-.71h0Z" fill="#d8e8f8"/></g><path d="M53.565,24.058h-25.08c-2.04,0-3.71,1.67-3.71,3.71v25.08c0,2.04,1.67,3.71,3.71,3.71h25.08c2.04,0,3.71-1.67,3.71-3.71v-25.08c0-2.04-1.67-3.71-3.71-3.71ZM55.775,52.848c0,1.22-.99,2.21-2.21,2.21h-25.08c-1.22,0-2.21-.99-2.21-2.21v-25.08c0-1.22.99-2.21,2.21-2.21h25.08c1.22,0,2.21.99,2.21,2.21v25.08Z" fill="#4f84d4"/><g><path d="M33.827,32.81h14.395c.167,0,.302.135.302.302v14.395c0,.165-.134.3-.3.3h-14.398c-.165,0-.3-.134-.3-.3v-14.395c0-.167.135-.302.302-.302Z" fill="#d8e8f8"/><path d="M48.148,33.185v14.246h-14.248v-14.246h14.248M48.224,32.435h-14.396c-.372,0-.677.302-.677.675v14.396c0,.373.305.675.677.675h14.396c.372,0,.675-.302.675-.675v-14.396c0-.373-.303-.675-.675-.675h0Z" fill="#fff"/></g><g><path d="M30.692,19.329c-.414,0-.75.336-.75.75v2.208c0,.414.336.75.75.75s.75-.336.75-.75v-2.208c0-.414-.336-.75-.75-.75Z" fill="#4f84d4"/><path d="M34.825,19.329c-.414,0-.75.336-.75.75v2.208c0,.414.336.75.75.75s.75-.336.75-.75v-2.208c0-.414-.336-.75-.75-.75Z" fill="#4f84d4"/><path d="M38.959,19.329c-.414,0-.75.336-.75.75v2.208c0,.414.336.75.75.75s.75-.336.75-.75v-2.208c0-.414-.336-.75-.75-.75Z" fill="#4f84d4"/><path d="M43.092,19.329c-.414,0-.75.336-.75.75v2.208c0,.414.336.75.75.75s.75-.336.75-.75v-2.208c0-.414-.336-.75-.75-.75Z" fill="#4f84d4"/><path d="M47.225,19.329c-.414,0-.75.336-.75.75v2.208c0,.414.336.75.75.75s.75-.336.75-.75v-2.208c0-.414-.336-.75-.75-.75Z" fill="#4f84d4"/><path d="M51.358,19.329c-.414,0-.75.336-.75.75v2.208c0,.414.336.75.75.75s.75-.336.75-.75v-2.208c0-.414-.336-.75-.75-.75Z" fill="#4f84d4"/><path d="M30.692,57.579c-.414,0-.75.336-.75.75v2.208c0,.414.336.75.75.75s.75-.336.75-.75v-2.208c0-.414-.336-.75-.75-.75Z" fill="#4f84d4"/><path d="M34.825,57.579c-.414,0-.75.336-.75.75v2.208c0,.414.336.75.75.75s.75-.336.75-.75v-2.208c0-.414-.336-.75-.75-.75Z" fill="#4f84d4"/><path d="M38.959,57.579c-.414,0-.75.336-.75.75v2.208c0,.414.336.75.75.75s.75-.336.75-.75v-2.208c0-.414-.336-.75-.75-.75Z" fill="#4f84d4"/><path d="M43.092,57.579c-.414,0-.75.336-.75.75v2.208c0,.414.336.75.75.75s.75-.336.75-.75v-2.208c0-.414-.336-.75-.75-.75Z" fill="#4f84d4"/><path d="M47.225,57.579c-.414,0-.75.336-.75.75v2.208c0,.414.336.75.75.75s.75-.336.75-.75v-2.208c0-.414-.336-.75-.75-.75Z" fill="#4f84d4"/><path d="M51.358,57.579c-.414,0-.75.336-.75.75v2.208c0,.414.336.75.75.75s.75-.336.75-.75v-2.208c0-.414-.336-.75-.75-.75Z" fill="#4f84d4"/></g><g><path d="M23.004,49.891h-2.207c-.414,0-.75.336-.75.75s.336.75.75.75h2.207c.414,0,.75-.336.75-.75s-.336-.75-.75-.75Z" fill="#4f84d4"/><path d="M23.004,45.758h-2.207c-.414,0-.75.336-.75.75s.336.75.75.75h2.207c.414,0,.75-.336.75-.75s-.336-.75-.75-.75Z" fill="#4f84d4"/><path d="M23.004,41.624h-2.207c-.414,0-.75.336-.75.75s.336.75.75.75h2.207c.414,0,.75-.336.75-.75s-.336-.75-.75-.75Z" fill="#4f84d4"/><path d="M23.004,37.491h-2.207c-.414,0-.75.336-.75.75s.336.75.75.75h2.207c.414,0,.75-.336.75-.75s-.336-.75-.75-.75Z" fill="#4f84d4"/><path d="M23.004,33.357h-2.207c-.414,0-.75.336-.75.75s.336.75.75.75h2.207c.414,0,.75-.336.75-.75s-.336-.75-.75-.75Z" fill="#4f84d4"/><path d="M23.004,29.225h-2.207c-.414,0-.75.336-.75.75s.336.75.75.75h2.207c.414,0,.75-.336.75-.75s-.336-.75-.75-.75Z" fill="#4f84d4"/><path d="M61.254,49.891h-2.207c-.414,0-.75.336-.75.75s.336.75.75.75h2.207c.414,0,.75-.336.75-.75s-.336-.75-.75-.75Z" fill="#4f84d4"/><path d="M61.254,45.758h-2.207c-.414,0-.75.336-.75.75s.336.75.75.75h2.207c.414,0,.75-.336.75-.75s-.336-.75-.75-.75Z" fill="#4f84d4"/><path d="M61.254,41.624h-2.207c-.414,0-.75.336-.75.75s.336.75.75.75h2.207c.414,0,.75-.336.75-.75s-.336-.75-.75-.75Z" fill="#4f84d4"/><path d="M61.254,37.491h-2.207c-.414,0-.75.336-.75.75s.336.75.75.75h2.207c.414,0,.75-.336.75-.75s-.336-.75-.75-.75Z" fill="#4f84d4"/><path d="M61.254,33.357h-2.207c-.414,0-.75.336-.75.75s.336.75.75.75h2.207c.414,0,.75-.336.75-.75s-.336-.75-.75-.75Z" fill="#4f84d4"/><path d="M59.047,30.725h2.207c.414,0,.75-.336.75-.75s-.336-.75-.75-.75h-2.207c-.414,0-.75.336-.75.75s.336.75.75.75Z" fill="#4f84d4"/></g></svg>