<?xml version="1.0" encoding="UTF-8"?><svg id="Layer_1" xmlns="http://www.w3.org/2000/svg" viewBox="0 0 216 216"><defs><style>.cls-1{fill:#2e496d;fill-rule:evenodd;}.cls-1,.cls-2{stroke-width:0px;}.cls-2{fill:#fff;}</style></defs><path class="cls-1" d="m110.49,212.43l86.41-49.89c1.36-.79,2.2-2.24,2.2-3.82V58.94c0-1.57-.84-3.03-2.2-3.81L110.49,5.24c-1.36-.79-3.04-.79-4.4,0L19.67,55.13c-1.36.79-2.2,2.24-2.2,3.81v99.78c0,1.57.84,3.03,2.2,3.82l86.41,49.89c1.36.79,3.04.79,4.4,0"/><path class="cls-2" d="m162.1,93.74c.24-1.68.37-3.39.37-5.14,0-19.73-15.99-35.72-35.72-35.72-14.61,0-27.16,8.77-32.7,21.34-2.8-1.05-5.83-1.63-9-1.63-12.38,0-22.71,8.78-25.12,20.44-1.24-.18-2.51-.28-3.79-.28-14.43,0-26.14,11.71-26.14,26.14,0,12.21,8.37,22.46,19.69,25.33h112.55c11.64-2.48,20.38-12.83,20.38-25.21s-8.81-22.84-20.53-25.26m-76.55,34.94h-8.42v-38.28h8.42v38.28Zm33.56-7.83c-.68,1.79-1.64,3.32-2.89,4.58-1.25,1.27-2.76,2.24-4.53,2.92-1.77.68-3.75,1.02-5.93,1.02s-4.15-.34-5.9-1.02c-1.75-.68-3.25-1.65-4.5-2.92-1.25-1.27-2.22-2.8-2.89-4.58-.68-1.79-1.02-3.79-1.02-6s.34-4.23,1.02-6.03c.68-1.8,1.64-3.34,2.89-4.61,1.25-1.27,2.75-2.25,4.5-2.95,1.75-.7,3.72-1.05,5.9-1.05s4.16.35,5.93,1.05c1.77.7,3.28,1.68,4.53,2.95,1.25,1.27,2.22,2.81,2.89,4.61.68,1.81,1.02,3.82,1.02,6.03s-.34,4.22-1.02,6m28.58-23.38h-11.47v31.21h-8.42v-31.21h-11.48v-7.08h31.37v7.08Z"/><path class="cls-2" d="m111.09,108.74c-.52-.82-1.21-1.49-2.09-2.01s-1.96-.78-3.24-.78-2.36.26-3.22.78c-.86.52-1.55,1.19-2.07,2.01-.52.82-.88,1.77-1.1,2.84-.22,1.07-.32,2.16-.32,3.27s.11,2.19.32,3.24c.21,1.06.58,2,1.1,2.84.52.84,1.21,1.51,2.07,2.01.86.5,1.93.75,3.22.75s2.37-.25,3.24-.75c.88-.5,1.57-1.17,2.09-2.01.52-.84.88-1.79,1.1-2.84.21-1.05.32-2.14.32-3.24s-.11-2.2-.32-3.27c-.22-1.07-.58-2.02-1.1-2.84"/></svg>