<?xml version="1.0" encoding="UTF-8"?>
<svg id="Layer_1" xmlns="http://www.w3.org/2000/svg" version="1.1" viewBox="0 0 216 216">
  <!-- Generator: Adobe Illustrator 29.1.0, SVG Export Plug-In . SVG Version: 2.1.0 Build 142)  -->
  <defs>
    <style>
      .st0 {
        fill: #fff;
      }

      .st1 {
        fill: #de2f26;
        fill-rule: evenodd;
      }
    </style>
  </defs>
  <path class="st1" d="M17.5,58.9v99.8c0,1.6.8,3,2.2,3.8l86.4,49.9c1.4.8,3,.8,4.4,0l86.4-49.9c1.4-.8,2.2-2.2,2.2-3.8V58.9c0-1.6-.8-3-2.2-3.8L110.5,5.2c-1.4-.8-3-.8-4.4,0L19.7,55.1c-1.4.8-2.2,2.2-2.2,3.8"/>
  <g>
    <path class="st0" d="M139.9,53.9c-9.2-8.8-21.3-13.1-34-12.5-24,1.3-43.2,21.3-43.4,45.2-.2,14.4,6.3,27.7,17.5,36.7,3.3,2.7,5.4,6.9,5.4,11.3v3.1c-2.5.8-4.2,3.1-4.2,5.8s1.7,5,4.2,5.8v6.7c0,10.4,8.3,18.8,18.8,18.8h8.3c10.4,0,18.8-8.3,18.8-18.8v-6.7c2.5-.8,4.2-3.1,4.2-5.8s-1.7-5-4.2-5.8v-3.1c0-4.4,2.1-8.8,5.4-11.3,11-8.8,17.5-21.9,17.5-36.1s-5-24.6-14.4-33.4h0ZM134.1,120c-4.4,3.3-6.9,9-6.9,14.6v2.7h-6.3v-30.4l8.3-8.3c1.3.8,2.7,1.3,4.2,1.3,4.6,0,8.3-3.8,8.3-8.3s-3.8-8.3-8.3-8.3-8.3,3.8-8.3,8.3.4,2.9,1.3,4.2l-9,9c-.4.4-.6.8-.6,1.5v31.3h-6.3v-62.8c3.6-.8,6.3-4.2,6.3-8.1s-3.8-8.3-8.3-8.3-8.3,3.8-8.3,8.3,2.7,7.1,6.3,8.1v62.8h-6.3v-22.9c0-.6-.2-1-.6-1.5l-9-9c.8-1.3,1.3-2.7,1.3-4.2,0-4.6-3.8-8.3-8.3-8.3s-8.3,3.8-8.3,8.3,3.8,8.3,8.3,8.3,2.9-.4,4.2-1.3l8.3,8.3v22.1h-6.3v-2.7c0-5.6-2.5-11-6.9-14.6-10.2-8.1-16.1-20.2-16.1-33.4.2-21.5,17.9-39.8,39.4-41.1,11.7-.6,22.5,3.3,30.9,11.5,8.3,7.9,12.9,18.8,12.9,30.2.2,12.9-5.6,24.8-15.8,32.7h0Z"/>
    <path class="st0" d="M129.3,66.4c-3.6,0-6.3,2.7-6.3,6.3s.2,1.9.6,2.7l-6.3,6.3c-.4.4-.6.8-.6,1.5v10.4c0,1.3.8,2.1,2.1,2.1s2.1-.8,2.1-2.1v-9.6l5.6-5.6c.8.4,1.7.6,2.7.6,3.6,0,6.3-2.7,6.3-6.3s-2.7-6.3-6.3-6.3h0Z"/>
    <path class="st0" d="M97.4,85.8c.4-.8.6-1.7.6-2.7,0-3.6-2.7-6.3-6.3-6.3s-6.3,2.7-6.3,6.3,2.7,6.3,6.3,6.3,1.9-.2,2.7-.6l1.5,1.5v9.6c0,1.3.8,2.1,2.1,2.1s2.1-.8,2.1-2.1v-10.4c0-.6-.2-1-.6-1.5l-2.1-2.1h0Z"/>
    <path class="st0" d="M132,102.5l-6.3,6.3c-.4.4-.6.8-.6,1.5v6.3c0,1.3.8,2.1,2.1,2.1s2.1-.8,2.1-2.1v-5.4l5.6-5.6c.8-.8.8-2.1,0-2.9s-2.1-.8-2.9,0h0Z"/>
    <path class="st0" d="M89.7,122.7c1.3,0,2.1-.8,2.1-2.1v-4.2c0-1.3-.8-2.1-2.1-2.1s-2.1.8-2.1,2.1v4.2c0,1.3.8,2.1,2.1,2.1Z"/>
    <path class="st0" d="M173,83.1h-8.3c-1.3,0-2.1.8-2.1,2.1s.8,2.1,2.1,2.1h8.3c1.3,0,2.1-.8,2.1-2.1s-.8-2.1-2.1-2.1Z"/>
    <path class="st0" d="M157.2,59.1c.4,0,.6,0,1-.2l7.3-4.2c.8-.6,1.3-1.9.6-2.9s-1.9-1.3-2.9-.8l-7.3,4.2c-1,.6-1.3,1.9-.8,2.9.6.6,1.3,1,2.1,1h0Z"/>
    <path class="st0" d="M165.3,111.4l-7.3-4.2c-1-.6-2.3-.2-2.9.8-.6,1-.2,2.3.8,2.9l7.3,4.2c.4.2.6.2,1,.2.6,0,1.5-.4,1.9-1,.6-1,.2-2.3-.8-2.9h0Z"/>
    <path class="st0" d="M54.2,85.2c0-1.3-.8-2.1-2.1-2.1h-8.3c-1.3,0-2.1.8-2.1,2.1s.8,2.1,2.1,2.1h8.3c1.3,0,2.1-.8,2.1-2.1Z"/>
    <path class="st0" d="M60.7,55.1l-7.3-4.2c-.8-.4-2.1-.2-2.7.8-.6,1-.2,2.3.8,2.9l7.3,4.2c.4.2.6.2,1,.2.6,0,1.3-.4,1.7-1,.6-1,.2-2.3-.8-2.9h0Z"/>
    <path class="st0" d="M58.6,107.3l-7.3,4.2c-.8.6-1.3,1.9-.6,2.9.4.6,1,1,1.9,1s.6,0,1-.2l7.3-4.2c1-.6,1.3-1.9.8-2.9-.8-1-2.1-1.3-3.1-.8h0Z"/>
  </g>
</svg>