<svg width="128" height="128" viewBox="0 0 128 128" fill="none" xmlns="http://www.w3.org/2000/svg">
<g clip-path="url(#clip0_922_367)">
<path d="M64 128.3C99.3462 128.3 128 99.646 128 64.2998C128 28.9536 99.3462 0.299805 64 0.299805C28.6538 0.299805 0 28.9536 0 64.2998C0 99.646 28.6538 128.3 64 128.3Z" fill="#28A5C6"/>
<path d="M90 38.8998C85.4 43.4998 78 43.4998 73.4 38.8998C68.8 34.2998 68.8 26.8998 73.4 22.2998L90 38.8998Z" fill="white"/>
<path d="M73.4 34.8996C71.6 33.0996 70.5 30.8996 70.1 28.5996C69.5 32.1996 70.6 36.0996 73.4 38.8996C78 43.4996 85.4 43.4996 90 38.8996L87.7 36.5996C83.2 39.3996 77.3 38.7996 73.4 34.8996Z" fill="#EAEAEA"/>
<path d="M89.1023 26.9775C90.1567 25.9231 90.1567 24.2136 89.1023 23.1592C88.0479 22.1048 86.3383 22.1048 85.2839 23.1592C84.2295 24.2136 84.2295 25.9231 85.2839 26.9775C86.3383 28.0319 88.0479 28.0319 89.1023 26.9775Z" fill="white"/>
<path d="M36.9001 77.1997C37.7001 77.9997 37.7001 79.2997 36.9001 79.9997L34.6 82.2997C33.8 83.0997 32.5 83.0997 31.8 82.2997L29.9 80.3997C29.1 79.5997 29.1 78.2997 29.9 77.5997L32.2 75.2997C33 74.4997 34.3 74.4997 35 75.2997L36.9001 77.1997Z" fill="#EAEAEA"/>
<path d="M33 83.8999C32.2 83.8999 31.4 83.5999 30.8 82.9999L28.9 81.0999C28.3 80.5999 28 79.7999 28 78.9999C28 78.1999 28.3 77.3999 28.9 76.8999L31.3 74.5999C32.5 73.4999 34.5 73.4999 35.7 74.5999L37.6 76.4999C38.2 77.0999 38.5 77.7999 38.5 78.5999C38.5 79.3999 38.2 80.1999 37.6 80.6999L35.2 82.9999C34.6 83.5999 33.9 83.8999 33 83.8999ZM33.5 75.7999C33.2 75.7999 33 75.8999 32.8 76.0999L30.4 78.3999C30.2 78.5999 30.1 78.7999 30.1 79.0999C30.1 79.3999 30.2 79.5999 30.4 79.7999L32.3 81.6999C32.7 82.0999 33.4 82.0999 33.8 81.6999L36.2 79.3999C36.4 79.1999 36.5 78.9999 36.5 78.6999C36.5 78.3999 36.4 78.1999 36.2 77.9999L34.2 75.9999C34 75.8999 33.7 75.7999 33.5 75.7999Z" fill="#074370"/>
<path d="M70.9999 42.3996C74.0999 45.4996 74.0999 50.5996 70.9999 53.6996L45.5999 79.0996C42.4999 82.1996 37.3999 82.1996 34.2999 79.0996L33.0999 77.8996C29.9999 74.7996 29.9999 69.6996 33.0999 66.5996L58.3999 41.2996C61.4999 38.1996 66.5999 38.1996 69.6999 41.2996L70.9999 42.3996Z" fill="white"/>
<path d="M28.8 14.3997C25.7 11.2997 20.6 11.2997 17.5 14.3997L12 19.8997C8.90005 22.9997 8.90005 28.0997 12 31.1997L29.5 48.6997C32.6 51.7997 37.7 51.7997 40.8 48.6997L46.3 43.1997C49.4 40.0997 49.4 34.9997 46.3 31.8997L28.8 14.3997Z" fill="#3AD0F9"/>
<path d="M48.1001 51.5C47.8001 51.5 47.6001 51.4 47.4001 51.2L14.9001 18.7C14.5001 18.3 14.5001 17.7 14.9001 17.3C15.3001 16.9 15.9001 16.9 16.3001 17.3L48.8001 49.8C49.2001 50.2 49.2001 50.8 48.8001 51.2C48.6001 51.4 48.4001 51.5 48.1001 51.5Z" fill="#074370"/>
<path d="M25.8999 44.9999C25.5999 44.9999 25.3999 44.8999 25.1999 44.6999C24.7999 44.2999 24.7999 43.6999 25.1999 43.2999L40.7999 27.6999C41.1999 27.2999 41.7999 27.2999 42.1999 27.6999C42.5999 28.0999 42.5999 28.6999 42.1999 29.0999L26.5999 44.6999C26.4999 44.8999 26.1999 44.9999 25.8999 44.9999Z" fill="#074370"/>
<path d="M17.1001 36.0999C16.8001 36.0999 16.6001 35.9999 16.4001 35.7999C16.0001 35.3999 16.0001 34.7999 16.4001 34.3999L32.0001 18.6999C32.4001 18.2999 33.0001 18.2999 33.4001 18.6999C33.8001 19.0999 33.8001 19.6999 33.4001 20.0999L17.8001 35.7999C17.6001 35.9999 17.3001 36.0999 17.1001 36.0999Z" fill="#074370"/>
<path d="M97.6001 83.1996C100.7 86.2996 100.7 91.3996 97.6001 94.4996L92.1001 99.9996C89.0001 103.1 83.9001 103.1 80.8001 99.9996L63.3001 82.5996C60.2001 79.4996 60.2001 74.3996 63.3001 71.2996L68.8001 65.7996C71.9001 62.6996 77.0001 62.6996 80.1001 65.7996L97.6001 83.1996Z" fill="#3AD0F9"/>
<path d="M94 97.3999C93.7 97.3999 93.5 97.2999 93.3 97.0999L60.8 64.5999C60.4 64.1999 60.4 63.5999 60.8 63.1999C61.2 62.7999 61.8 62.7999 62.2 63.1999L94.7 95.6999C95.1 96.0999 95.1 96.6999 94.7 97.0999C94.5 97.2999 94.3 97.3999 94 97.3999Z" fill="#074370"/>
<path d="M68 87.0999C67.7 87.0999 67.5 86.9999 67.3 86.7999C66.9 86.3999 66.9 85.7999 67.3 85.3999L83 69.6999C83.4 69.2999 84 69.2999 84.4 69.6999C84.8 70.0999 84.8 70.6999 84.4 71.0999L68.7 86.7999C68.5 86.9999 68.3 87.0999 68 87.0999Z" fill="#074370"/>
<path d="M76.8999 95.9999C76.5999 95.9999 76.3999 95.8999 76.1999 95.6999C75.7999 95.2999 75.7999 94.6999 76.1999 94.2999L91.7999 78.6999C92.1999 78.2999 92.7999 78.2999 93.1999 78.6999C93.5999 79.0999 93.5999 79.6999 93.1999 80.0999L77.5999 95.6999C77.3999 95.8999 77.1999 95.9999 76.8999 95.9999Z" fill="#074370"/>
<path d="M81.7 43.2998C78.3 43.2998 75.1 41.9998 72.7 39.5998C67.7 34.5998 67.7 26.4998 72.7 21.5998C73.1 21.1998 73.7 21.1998 74.1 21.5998L90.7 38.1998C91.1 38.5998 91.1 39.1998 90.7 39.5998C88.3 41.9998 85.1 43.2998 81.7 43.2998ZM73.5 23.6998C70 27.8998 70.2 34.1998 74.2 38.1998C76.2 40.1998 78.9 41.3998 81.8 41.3998C84.3 41.3998 86.7 40.4998 88.6 38.8998L73.5 23.6998Z" fill="#074370"/>
<path d="M70.8999 42.2997C70.5999 42.2997 70.3999 42.1997 70.1999 41.9997C69.7999 41.5997 69.7999 40.9997 70.1999 40.5997L72.2999 38.4997C72.6999 38.0997 73.2999 38.0997 73.6999 38.4997C74.0999 38.8997 74.0999 39.4997 73.6999 39.8997L71.5999 41.9997C71.3999 42.1997 71.1999 42.2997 70.8999 42.2997Z" fill="#074370"/>
<path d="M70.9999 48.7996L45.5999 74.0996C42.4999 77.1996 37.3999 77.1996 34.2999 74.0996L33.0999 72.8996C32.1999 71.9996 31.4999 70.8996 31.1999 69.6996C30.2999 72.4996 30.8999 75.6996 33.0999 77.8996L34.2999 79.0996C37.3999 82.1996 42.4999 82.1996 45.5999 79.0996L70.9999 53.7996C73.1999 51.5996 73.7999 48.3996 72.8999 45.5996C72.4999 46.7996 71.8999 47.7996 70.9999 48.7996Z" fill="#EAEAEA"/>
<path d="M46.6 78.9996C46.3 78.9996 46.1001 78.8996 45.9001 78.6996L33.6 66.2996C33.2 65.8996 33.2 65.2996 33.6 64.8996L38.1 60.3996C38.5 59.9996 39.1001 59.9996 39.5001 60.3996L51.9001 72.7996C52.3001 73.1996 52.3001 73.7996 51.9001 74.1996L47.4001 78.6996C47.2001 78.8996 46.9 78.9996 46.6 78.9996ZM35.7001 65.5996L46.6 76.4996L49.7001 73.3996L38.8 62.4996L35.7001 65.5996Z" fill="#074370"/>
<path d="M81.8001 31.3999C81.5001 31.3999 81.3 31.2999 81.1 31.0999C80.7 30.6999 80.7 30.0999 81.1 29.6999L84.1 26.6999C84.5 26.2999 85.1001 26.2999 85.5001 26.6999C85.9001 27.0999 85.9001 27.6999 85.5001 28.0999L82.5001 31.0999C82.3001 31.2999 82.1001 31.3999 81.8001 31.3999Z" fill="#074370"/>
<path d="M87 28.9996C85.9 28.9996 84.9 28.5996 84.2 27.7996C82.6 26.1996 82.6 23.6996 84.2 22.0996C85.7 20.5996 88.3 20.5996 89.9 22.0996C91.5 23.6996 91.5 26.1996 89.9 27.7996C89.1 28.5996 88.1 28.9996 87 28.9996ZM87 23.0996C86.5 23.0996 86 23.2996 85.7 23.5996C85 24.2996 85 25.4996 85.7 26.1996C86.4 26.8996 87.6 26.8996 88.3 26.1996C89 25.4996 89 24.2996 88.3 23.5996C88 23.2996 87.5 23.0996 87 23.0996Z" fill="#074370"/>
<path d="M45.2 68C44.9 68 44.7 67.9 44.5 67.7C44.1 67.3 44.1 66.7 44.5 66.3L69.5 41.3C69.9 40.9 70.5 40.9 70.9 41.3C71.3 41.7 71.3 42.3 70.9 42.7L45.9 67.7C45.7 67.9 45.5 68 45.2 68Z" fill="#074370"/>
<path d="M39.9999 82.4C37.5999 82.4 35.2999 81.5 33.5999 79.8L32.3999 78.6C28.8999 75.1 28.8999 69.4 32.3999 65.9L57.6999 40.6C59.3999 38.9 61.6999 38 64.0999 38C66.4999 38 68.7999 38.9 70.4999 40.6L71.6999 41.8C75.1999 45.3 75.1999 51 71.6999 54.5L46.2999 79.8C44.5999 81.5 42.3999 82.4 39.9999 82.4ZM64.1999 40C62.2999 40 60.5999 40.7 59.1999 42L33.8999 67.3C31.1999 70 31.1999 74.5 33.8999 77.2L35.0999 78.4C36.3999 79.7 38.1999 80.4 39.9999 80.4C41.8999 80.4 43.5999 79.7 44.9999 78.4L70.2999 53C72.9999 50.3 72.9999 45.8 70.2999 43.1L69.0999 42C67.7999 40.7 65.9999 40 64.1999 40Z" fill="#074370"/>
<path d="M35.5 51.9996C33.1 51.9996 30.8 51.0996 29.1 49.3996L11.6 31.8996C9.9 30.1996 9 27.9996 9 25.5996C9 23.1996 9.9 20.8996 11.6 19.1996L17.1 13.6996C18.8 11.9996 21.1 11.0996 23.5 11.0996C25.9 11.0996 28.2 11.9996 29.9 13.6996L47.4 31.1996C49.1 32.8996 50 35.1996 50 37.5996C50 39.9996 49.1 42.2996 47.4 43.9996L41.9 49.4996C40.1 51.0996 37.9 51.9996 35.5 51.9996ZM23.5 12.9996C21.6 12.9996 19.9 13.6996 18.5 14.9996L13 20.5996C11.7 21.8996 11 23.6996 11 25.5996C11 27.4996 11.7 29.1996 13 30.5996L30.5 47.9996C31.8 49.2996 33.6 49.9996 35.5 49.9996C37.4 49.9996 39.1 49.2996 40.5 47.9996L46 42.4996C47.3 41.1996 48 39.3996 48 37.4996C48 35.5996 47.3 33.8996 46 32.4996L28.5 15.0996C27.2 13.7996 25.4 12.9996 23.5 12.9996Z" fill="#074370"/>
<path d="M29 20.1997C28.7 20.1997 28.5 20.0997 28.3 19.8997L25 16.4997C23.7 15.1997 21.2 17.0997 20.4 17.7997C20 18.1997 19.4 18.1997 19 17.7997C18.6 17.3997 18.6 16.7997 19 16.3997C20.5 14.8997 24 12.6997 26.4 15.0997L29.7 18.3997C30.1 18.7997 30.1 19.3997 29.7 19.7997C29.5 20.0997 29.3 20.1997 29 20.1997Z" fill="white"/>
<path d="M37.3999 28.3999C37.0999 28.3999 36.8999 28.2999 36.6999 28.0999L32.6999 24.0999C32.2999 23.6999 32.2999 23.0999 32.6999 22.6999C33.0999 22.2999 33.6999 22.2999 34.0999 22.6999L38.0999 26.6999C38.4999 27.0999 38.4999 27.6999 38.0999 28.0999C37.9999 28.2999 37.6999 28.3999 37.3999 28.3999Z" fill="white"/>
<path d="M25.1 40.5998C24.8 40.5998 24.6 40.4998 24.4 40.2998L20.6 36.4998C20.2 36.0998 20.2 35.4998 20.6 35.0998C21 34.6998 21.6 34.6998 22 35.0998L25.8 38.8998C26.2 39.2998 26.2 39.8998 25.8 40.2998C25.6 40.4998 25.3 40.5998 25.1 40.5998Z" fill="white"/>
<path d="M16 31.6997C15.7 31.6997 15.5 31.5997 15.3 31.3997L12.8 28.8997C12.4 28.4997 12.4 27.8997 12.8 27.4997C13.2 27.0997 13.8 27.0997 14.2 27.4997L16.7 29.9997C17.1 30.3997 17.1 30.9997 16.7 31.3997C16.5 31.5997 16.3 31.6997 16 31.6997Z" fill="white"/>
<path d="M86.5001 103C84.1001 103 81.8001 102.1 80.1001 100.4L62.6001 82.8996C59.1001 79.3996 59.1001 73.6996 62.6001 70.1996L68.1001 64.6996C69.8001 62.9996 72.1001 62.0996 74.5001 62.0996C76.9001 62.0996 79.2001 62.9996 80.9001 64.6996L98.4001 82.1996C101.9 85.6996 101.9 91.3996 98.4001 94.8996L92.9001 100.4C91.1001 102.1 88.9001 103 86.5001 103ZM74.5001 63.9996C72.6001 63.9996 70.9001 64.6996 69.5001 65.9996L64.0001 71.5996C61.3001 74.2996 61.3001 78.7996 64.0001 81.4996L81.5001 98.9996C82.8001 100.3 84.6001 101 86.5001 101C88.4001 101 90.1001 100.3 91.5001 98.9996L97.0001 93.4996C99.7001 90.7996 99.7001 86.2996 97.0001 83.5996L79.5001 65.9996C78.2001 64.6996 76.4001 63.9996 74.5001 63.9996Z" fill="#074370"/>
<path d="M96.3001 91.7C96.0001 91.7 95.8001 91.6 95.6001 91.4C95.2001 91 95.2001 90.4 95.6001 90C96.3001 89.3 94.7001 86.5 92.9001 84.7C92.5001 84.3 92.5001 83.7 92.9001 83.3C93.3001 82.9 93.9001 82.9 94.3001 83.3C94.5001 83.5 99.6001 88.7 97.0001 91.4C96.8001 91.6 96.6001 91.7 96.3001 91.7Z" fill="white"/>
<path d="M88.4 80.0999C88.1 80.0999 87.8999 79.9999 87.6999 79.7999L83.5 75.5999C83.1 75.1999 83.1 74.5999 83.5 74.1999C83.9 73.7999 84.5 73.7999 84.9 74.1999L89.0999 78.3999C89.4999 78.7999 89.4999 79.3999 89.0999 79.7999C88.8999 79.9999 88.7 80.0999 88.4 80.0999Z" fill="white"/>
<path d="M79.2 70.5999C78.9 70.5999 78.7 70.4999 78.5 70.2999L76.3 68.0999C75.9 67.6999 75.9 67.0999 76.3 66.6999C76.7 66.2999 77.3 66.2999 77.7 66.6999L79.9 68.8999C80.3 69.2999 80.3 69.8999 79.9 70.2999C79.7 70.4999 79.5 70.5999 79.2 70.5999Z" fill="white"/>
<path opacity="0.5" d="M57.3999 48.5C57.0999 48.5 56.8999 48.4 56.6999 48.2C56.2999 47.8 56.2999 47.2 56.6999 46.8L60.7999 42.8C61.1999 42.4 61.7999 42.4 62.1999 42.8C62.5999 43.2 62.5999 43.8 62.1999 44.2L58.0999 48.2C57.8999 48.4 57.5999 48.5 57.3999 48.5Z" fill="#0C508E"/>
<path opacity="0.5" d="M44.1001 61.6998C43.8001 61.6998 43.6001 61.5998 43.4001 61.3998C43.0001 60.9998 43.0001 60.3998 43.4001 59.9998L53.9001 49.5998C54.3001 49.1998 54.9001 49.1998 55.3001 49.5998C55.7001 49.9998 55.7001 50.5998 55.3001 50.9998L44.8001 61.3998C44.6001 61.5998 44.4001 61.6998 44.1001 61.6998Z" fill="#0C508E"/>
<path d="M111.3 81.8998C117.486 81.8998 122.5 77.0645 122.5 71.0998C122.5 65.1351 117.486 60.2998 111.3 60.2998C105.115 60.2998 100.1 65.1351 100.1 71.0998C100.1 77.0645 105.115 81.8998 111.3 81.8998Z" fill="#FBD000"/>
<path d="M49 117C53.1421 117 56.5 113.508 56.5 109.2C56.5 104.892 53.1421 101.4 49 101.4C44.8579 101.4 41.5 104.892 41.5 109.2C41.5 113.508 44.8579 117 49 117Z" fill="#D4D6D6"/>
<path d="M111.3 83C104.6 83 99 77.4 99 70.8C99 64.3 104.5 59 111.3 59C117.9 59 123 64.2 123 70.8C123 77.5 117.7 83 111.3 83ZM111.3 61C105.7 61 101.1 65.4 101.1 70.8C101.1 76.4 105.8 81 111.3 81C116.6 81 121 76.4 121 70.8C120.9 65.2 116.8 61 111.3 61Z" fill="#074370"/>
<path d="M49 118C44.2 118 40 113.8 40 109C40 104.2 44.2 100 49 100C53.8 100 58 104.2 58 109C58 113.8 53.8 118 49 118ZM49 102.1C45.3 102.1 42 105.3 42 109C42 112.7 45.3 115.9 49 115.9C52.7 115.9 56 112.7 56 109C56 105.3 52.7 102.1 49 102.1Z" fill="#074370"/>
<path opacity="0.5" d="M59 31C56.8 31 55 29.2 55 27C55 24.8 56.8 23 59 23C61.2 23 63 24.8 63 27C63 29.2 61.2 31 59 31ZM59 24.9C57.8 24.9 56.9 25.9 56.9 27C56.9 28.2 57.9 29.1 59 29.1C60.2 29.1 61.1 28.1 61.1 27C61.1 25.8 60.2 24.9 59 24.9Z" fill="white"/>
<path opacity="0.5" d="M74 119C71.8 119 70 117.2 70 115C70 112.8 71.8 111 74 111C76.2 111 78 112.8 78 115C78 117.2 76.2 119 74 119ZM74 112.9C72.8 112.9 71.9 113.9 71.9 115C71.9 116.2 72.9 117.1 74 117.1C75.2 117.1 76.1 116.1 76.1 115C76.1 113.8 75.2 112.9 74 112.9Z" fill="white"/>
<path opacity="0.5" d="M105 37C102.8 37 101 35.2 101 33C101 30.8 102.8 29 105 29C107.2 29 109 30.8 109 33C109 35.2 107.2 37 105 37ZM105 30.9C103.8 30.9 102.9 31.9 102.9 33C102.9 34.2 103.9 35.1 105 35.1C106.2 35.1 107.1 34.1 107.1 33C107.1 31.8 106.2 30.9 105 30.9Z" fill="white"/>
<path opacity="0.5" d="M102 50.9998C102 50.5998 101.6 50.1998 101 50.0998L99.1001 49.7998C98.6001 49.6998 98.0001 49.1998 98.0001 48.6998L97.7001 46.7998C97.6001 46.2998 97.2001 45.7998 96.8001 45.7998C96.4001 45.7998 96.0001 46.1998 95.9001 46.7998L95.6001 48.6998C95.5001 49.1998 95.0001 49.7998 94.5001 49.7998L92.6001 50.0998C92.1001 50.1998 91.6001 50.5998 91.6001 50.9998C91.6001 51.3998 92.0001 51.7998 92.6001 51.8998L94.5001 52.1998C95.0001 52.2998 95.6001 52.7998 95.6001 53.2998L95.9001 55.1998C96.0001 55.6998 96.4001 56.1998 96.8001 56.1998C97.2001 56.1998 97.6001 55.7998 97.6001 55.1998L98.0001 52.9998C98.1001 52.4998 98.6001 51.9998 99.1001 51.8998L100.9 51.7998C101.6 51.7998 102 51.3998 102 50.9998Z" fill="white"/>
<path opacity="0.5" d="M37.4 100.6C37.4 100.2 37 99.7999 36.4 99.6999L34.5 99.3999C34 99.2999 33.4 98.7999 33.4 98.2999L33.1 96.3999C33 95.8999 32.6 95.3999 32.2 95.3999C31.8 95.3999 31.4 95.7999 31.3 96.3999L31 98.2999C30.9 98.7999 30.4 99.3999 29.9 99.3999L28 99.6999C27.5 99.7999 27 100.2 27 100.6C27 101 27.4 101.4 28 101.5L29.9 101.8C30.4 101.9 31 102.4 31 102.9L31.3 104.8C31.4 105.3 31.8 105.8 32.2 105.8C32.6 105.8 33 105.4 33 104.8L33.3 102.7C33.4 102.2 33.9 101.7 34.4 101.6L36.2 101.5C37 101.4 37.4 101 37.4 100.6Z" fill="white"/>
<path opacity="0.5" d="M20.4001 62.1C20.4001 61.7 20.0001 61.3 19.4001 61.2L17.6001 61C17.1001 60.9 16.5001 60.4 16.5001 59.9L16.2001 58C16.1001 57.5 15.7001 57 15.3001 57C14.9001 57 14.5001 57.4 14.4001 58L14.1001 59.9C14.0001 60.4 13.5001 61 13.0001 61L11.1001 61.3C10.6001 61.4 10.1001 61.8 10.1001 62.2C10.1001 62.6 10.5001 63 11.1001 63.1L13.0001 63.4C13.5001 63.5 14.1001 64 14.1001 64.5L14.4001 66.4C14.5001 66.9 14.9001 67.4 15.3001 67.4C15.7001 67.4 16.1001 67 16.1001 66.4L16.4001 64.3C16.5001 63.8 17.0001 63.3 17.5001 63.2L19.3001 63.1C20.0001 62.9 20.4001 62.5 20.4001 62.1Z" fill="white"/>
</g>
<defs>
<clipPath id="clip0_922_367">
<rect width="128" height="128" fill="white"/>
</clipPath>
</defs>
</svg>
