<?xml version="1.0" encoding="UTF-8"?>
<svg id="Layer_1" xmlns="http://www.w3.org/2000/svg" version="1.1" viewBox="0 0 216 216">
  <!-- Generator: Adobe Illustrator 29.1.0, SVG Export Plug-In . SVG Version: 2.1.0 Build 142)  -->
  <defs>
    <style>
      .st0 {
        fill: #fff;
      }

      .st1 {
        fill: #903885;
        fill-rule: evenodd;
      }
    </style>
  </defs>
  <path class="st1" d="M17.7,58.6v99.8c0,1.6.8,3,2.2,3.8l86.4,49.9c1.4.8,3,.8,4.4,0l86.4-49.9c1.4-.8,2.2-2.2,2.2-3.8V58.6c0-1.6-.8-3-2.2-3.8L110.7,4.9c-1.4-.8-3-.8-4.4,0L19.9,54.8c-1.4.8-2.2,2.2-2.2,3.8"/>
  <g>
    <path class="st0" d="M108.4,64c-3,0-5.9-1.2-8-3.3s-3.3-5-3.3-8,1.2-5.9,3.3-8h0c4.4-4.4,11.6-4.4,16.1,0s3.3,5,3.3,8-1.2,5.9-3.3,8c-2.1,2.2-5,3.3-8,3.3h0ZM103.2,47.4c-1.4,1.4-2.2,3.2-2.2,5.2s.8,3.8,2.2,5.2,3.2,2.2,5.2,2.2,3.8-.8,5.2-2.2,2.2-3.2,2.2-5.2-.8-3.8-2.2-5.2c-2.9-2.9-7.5-2.9-10.4,0h0Z"/>
    <path class="st0" d="M108.4,174.9c-3,0-5.9-1.2-8-3.3s-3.3-5-3.3-8,1.2-5.9,3.3-8h0c4.4-4.4,11.6-4.4,16.1,0s3.3,5,3.3,8-1.2,5.9-3.3,8c-2.1,2.2-5,3.3-8,3.3h0ZM103.2,158.3c-1.4,1.4-2.2,3.2-2.2,5.2s.8,3.8,2.2,5.2c1.4,1.4,3.2,2.2,5.2,2.2s3.8-.8,5.2-2.2,2.2-3.2,2.2-5.2-.8-3.8-2.2-5.2c-2.9-2.9-7.5-2.9-10.4,0h0Z"/>
    <path class="st0" d="M156.4,147c-3,0-5.9-1.2-8-3.3s-3.3-5-3.3-8,1.2-5.9,3.3-8h0c4.4-4.4,11.6-4.4,16.1,0s3.3,5,3.3,8-1.2,5.9-3.3,8c-2.1,2.2-5,3.3-8,3.3h0ZM151.2,130.5c-1.4,1.4-2.2,3.2-2.2,5.2s.8,3.8,2.2,5.2,3.2,2.2,5.2,2.2,3.8-.8,5.2-2.2,2.2-3.2,2.2-5.2-.8-3.8-2.2-5.2c-2.9-2.9-7.5-2.9-10.4,0h0Z"/>
    <path class="st0" d="M156.4,92.2c-3,0-5.9-1.2-8-3.3-4.4-4.4-4.4-11.6,0-16.1h0c4.4-4.4,11.6-4.4,16.1,0s4.4,11.6,0,16.1c-2.1,2.2-5,3.3-8,3.3h0ZM151.2,75.6c-2.9,2.9-2.9,7.5,0,10.4,1.4,1.4,3.2,2.2,5.2,2.2s3.8-.8,5.2-2.2c2.9-2.9,2.9-7.5,0-10.4-2.9-2.9-7.5-2.9-10.4,0h0Z"/>
    <path class="st0" d="M60.4,92.2c-3,0-5.9-1.2-8-3.3-4.4-4.4-4.4-11.6,0-16.1h0c4.4-4.4,11.6-4.4,16.1,0,4.4,4.4,4.4,11.6,0,16.1-2.1,2.2-5,3.3-8,3.3h0ZM55.2,75.6c-2.9,2.9-2.9,7.5,0,10.4,1.4,1.4,3.2,2.2,5.2,2.2s3.8-.8,5.2-2.2c2.9-2.9,2.9-7.5,0-10.4-2.9-2.9-7.5-2.9-10.4,0h0Z"/>
    <path class="st0" d="M60.4,145.8c-2.9,0-5.8-1.1-8-3.3-2.1-2.1-3.3-5-3.3-8s1.2-5.9,3.3-8h0c2.1-2.2,5-3.3,8-3.3s5.9,1.2,8,3.3,3.3,5,3.3,8-1.2,5.9-3.3,8-5.1,3.3-8,3.3ZM60.4,127.1c-2,0-3.8.8-5.2,2.2h0c-1.4,1.4-2.2,3.2-2.2,5.2s.8,3.8,2.2,5.2c2.9,2.9,7.5,2.9,10.4,0,1.4-1.4,2.2-3.2,2.2-5.2s-.8-3.8-2.2-5.2-3.2-2.2-5.2-2.2h0Z"/>
    <rect class="st0" x="65.8" y="64.7" width="36.4" height="4" transform="translate(-22.1 51) rotate(-30)"/>
    <rect class="st0" x="130.5" y="48" width="4" height="37" transform="translate(8.7 148.1) rotate(-60)"/>
    <rect class="st0" x="154.4" y="90.2" width="4" height="35.6"/>
    <rect class="st0" x="114.2" y="147.7" width="36.2" height="4" transform="translate(-57.1 86.2) rotate(-30)"/>
    <rect class="st0" x="82.1" y="130.7" width="4" height="37.4" transform="translate(-87.4 147.6) rotate(-60)"/>
    <rect class="st0" x="58.4" y="90.2" width="4" height="34.9"/>
    <g>
      <path class="st0" d="M108.5,147c-21.5,0-39-17.5-39-39s4.2-20.5,11.7-27.8l2.8,2.8c-6.8,6.6-10.5,15.5-10.5,25,0,19.3,15.7,35,35,35s35-15.7,35-35-15.7-35-35-35-10.5,1.2-15.3,3.5l-1.7-3.6c5.3-2.6,11-3.9,17-3.9,21.5,0,39,17.5,39,39s-17.5,39-39,39Z"/>
      <path class="st0" d="M108.5,147c-11.5,0-20.5-17.1-20.5-39s9-39,20.5-39,20.5,17.1,20.5,39-9,39-20.5,39ZM108.5,73.1c-8.9,0-16.5,16-16.5,35s7.6,35,16.5,35,16.5-16,16.5-35-7.6-35-16.5-35Z"/>
      <path class="st0" d="M108.5,93c-12.3,0-23.9-1.6-31.1-4.2l1.4-3.7c6.7,2.5,17.8,4,29.7,4s22.9-1.5,29.7-4l1.4,3.7c-7.1,2.6-18.7,4.2-31.1,4.2h0Z"/>
      <path class="st0" d="M78.6,130.8l-1.1-3.8c7.1-2.1,18.7-3.3,31.2-3.3s23.8,1.2,30.9,3.2l-1.1,3.8c-6.8-1.9-17.9-3.1-29.8-3.1s-23.4,1.2-30.1,3.2h0Z"/>
      <rect class="st0" x="71.5" y="106.1" width="74" height="4"/>
      <rect class="st0" x="106.5" y="71.1" width="4" height="74"/>
    </g>
  </g>
</svg>